<?xml version="1.0" encoding="UTF-8"?>
<svg width="316" height="317" version="1.1" viewBox="0 0 129.91 129.88" xml:space="preserve" xmlns="http://www.w3.org/2000/svg"><g transform="scale(1.006 .99404)" fill="#888" stroke-width=".16968" aria-label="GOOGLE PIXEL"><path d="m47.965 104.49q-0.41807 0.29138-1.0135 0.50675-0.59544 0.20271-1.5076 0.20271-0.98817 0-1.799-0.31673-0.79814-0.32939-1.3809-0.91216-0.5701-0.59543-0.88682-1.4316-0.31672-0.84882-0.31672-1.875 0-1.0388 0.32939-1.8877 0.34206-0.84882 0.9375-1.4443 0.60811-0.60811 1.4316-0.92483 0.83615-0.32939 1.8243-0.32939 1.2035 0 1.951 0.39274 0.76013 0.39274 1.2922 1.0895l-1.2542 1.1782q-0.32939-0.43074-0.78547-0.69679-0.45608-0.27872-1.1655-0.27872-0.58277 0-1.0642 0.19003-0.48142 0.19003-0.83615 0.5701-0.34206 0.3674-0.54476 0.89949-0.19003 0.53209-0.19003 1.2162 0 0.64612 0.17736 1.1782 0.19003 0.51943 0.53209 0.89949 0.34206 0.3674 0.81081 0.5701 0.48142 0.20271 1.0642 0.20271 0.60811 0 0.98818-0.11402 0.39274-0.12669 0.65878-0.31673v-1.2542h-1.837v-1.5076h3.5093v4.7128h-0.12669z"/><path d="m54.565 96.077q1.0008 0 1.8243 0.32939 0.83615 0.32939 1.4316 0.9375 0.59544 0.59544 0.92483 1.4316 0.32939 0.83615 0.32939 1.8497 0 1.0135-0.32939 1.8623-0.32939 0.83615-0.92483 1.4443-0.59544 0.59544-1.4316 0.9375-0.82348 0.32939-1.8243 0.32939-1.0135 0-1.8497-0.32939-0.82348-0.3294-1.4189-0.92483-0.59544-0.60811-0.92483-1.4443-0.32939-0.84881-0.32939-1.875 0-1.0008 0.32939-1.837 0.32939-0.83615 0.92483-1.4316 0.60811-0.60811 1.4316-0.9375 0.83615-0.34206 1.837-0.34206zm0 1.685q-0.58277 0-1.0642 0.2027-0.46875 0.2027-0.81081 0.5701-0.34206 0.3674-0.53209 0.89949-0.19003 0.53209-0.19003 1.1782 0 0.65878 0.19003 1.1909 0.19003 0.51943 0.53209 0.89949 0.34206 0.3674 0.81081 0.5701 0.48142 0.20271 1.0642 0.20271 0.58277 0 1.0515-0.20271 0.48142-0.2027 0.82348-0.5701 0.34206-0.38006 0.53209-0.89949 0.19003-0.53209 0.19003-1.1909 0-0.64612-0.19003-1.1782-0.19003-0.53209-0.53209-0.89949t-0.82348-0.5701q-0.46875-0.2027-1.0515-0.2027z"/><path d="m64.561 96.077q1.0008 0 1.8243 0.32939 0.83615 0.32939 1.4316 0.9375 0.59544 0.59544 0.92483 1.4316 0.32939 0.83615 0.32939 1.8497 0 1.0135-0.32939 1.8623-0.32939 0.83615-0.92483 1.4443-0.59544 0.59544-1.4316 0.9375-0.82348 0.32939-1.8243 0.32939-1.0135 0-1.8497-0.32939-0.82348-0.3294-1.4189-0.92483-0.59544-0.60811-0.92483-1.4443-0.32939-0.84881-0.32939-1.875 0-1.0008 0.32939-1.837 0.32939-0.83615 0.92483-1.4316 0.60811-0.60811 1.4316-0.9375 0.83615-0.34206 1.837-0.34206zm0 1.685q-0.58277 0-1.0642 0.2027-0.46875 0.2027-0.81081 0.5701t-0.53209 0.89949q-0.19003 0.53209-0.19003 1.1782 0 0.65878 0.19003 1.1909 0.19003 0.51943 0.53209 0.89949 0.34206 0.3674 0.81081 0.5701 0.48142 0.20271 1.0642 0.20271t1.0515-0.20271q0.48142-0.2027 0.82348-0.5701 0.34206-0.38006 0.53209-0.89949 0.19003-0.53209 0.19003-1.1909 0-0.64612-0.19003-1.1782-0.19003-0.53209-0.53209-0.89949t-0.82348-0.5701q-0.46875-0.2027-1.0515-0.2027z"/><path d="m76.951 104.49q-0.41807 0.29138-1.0135 0.50675-0.59544 0.20271-1.5076 0.20271-0.98817 0-1.799-0.31673-0.79814-0.32939-1.3809-0.91216-0.5701-0.59543-0.88682-1.4316-0.31672-0.84882-0.31672-1.875 0-1.0388 0.32939-1.8877 0.34206-0.84882 0.9375-1.4443 0.60811-0.60811 1.4316-0.92483 0.83615-0.32939 1.8243-0.32939 1.2035 0 1.951 0.39274 0.76013 0.39274 1.2922 1.0895l-1.2542 1.1782q-0.32939-0.43074-0.78547-0.69679-0.45608-0.27872-1.1655-0.27872-0.58277 0-1.0642 0.19003-0.48142 0.19003-0.83615 0.5701-0.34206 0.3674-0.54476 0.89949-0.19003 0.53209-0.19003 1.2162 0 0.64612 0.17736 1.1782 0.19003 0.51943 0.53209 0.89949 0.34206 0.3674 0.81081 0.5701 0.48142 0.20271 1.0642 0.20271 0.60811 0 0.98817-0.11402 0.39274-0.12669 0.65878-0.31673v-1.2542h-1.837v-1.5076h3.5093v4.7128h-0.12669z"/><path d="m81.499 103.31h3.1926v1.6976h-5.0802v-8.7415h1.8877z"/><path d="m91.596 97.902h-3.7247v1.9003h3.2432v1.5709h-3.2432v1.9637h3.8513v1.6723h-5.739v-8.7415h5.6123z"/><path d="m102.77 99.244q0 0.69679-0.24071 1.2669-0.24071 0.55744-0.70946 0.96284-0.45608 0.40541-1.1275 0.63345-0.65878 0.21537-1.5076 0.21537h-0.83615v2.6858h-1.8877v-8.7415h2.7745q1.7356 0 2.6351 0.78547 0.89949 0.7728 0.89949 2.1917zm-1.8877 0.06334q0-0.65878-0.43075-1.0262-0.41807-0.38007-1.2162-0.38007h-0.88682v2.8252h0.89949q0.79814 0 1.2162-0.3674 0.41808-0.38007 0.41808-1.0515z"/><path d="m106.08 105.01h-1.8877v-8.7415h1.8877z"/><path d="m112.15 100.52 2.8758 4.4848h-2.1917l-1.761-2.9772-1.8116 2.9772h-2.103l2.8758-4.4214-2.7618-4.3201h2.1664l1.685 2.8252 1.723-2.8252h2.0777z"/><path d="m121.72 97.902h-3.7247v1.9003h3.2432v1.5709h-3.2432v1.9637h3.8514v1.6723h-5.739v-8.7415h5.6123z"/><path d="m125.38 103.31h3.1926v1.6976h-5.0802v-8.7415h1.8877z"/></g><g transform="matrix(.89775 0 0 .89775 -84.552 206.51)"><path d="m201.56-163.29c0.6336-2.9108 0.9705-5.9323 0.9705-9.0333 0-21.95-16.727-39.991-38.128-42.08l1.6789-3.6873-0.68369-6.1472-3.7197-3.1369-5.5383-1.8581-6.5123-0.74119-3.2276 1.5402-6.2558 0.59973-1.6309 2.9439 4.2457 4.8857 5.3203 1.1776 0.0565 0.41875-8.2244 3.737-5.6854-0.29422-5.7486-2.5876-5.3742 1.5448 0.34431 6.1909 3.8845 3.0036 5.7655 2.0775c-4.68 3.9243-8.4967 8.8431-11.127 14.432l-4.5622 3.7779 1.759 4.1617c-0.88689 3.641-1.3063 7.4652-1.1811 11.407 0.71756 22.598 19.322 40.743 41.931 40.915 13.825 0.10548 26.127-6.4255 33.917-16.595 1.0104 0.17886 2.0743 0.20038 3.169 0.0268 4.3755-0.69533 7.7234-4.4045 7.9774-8.8273 0.18098-3.1563-1.1924-6.0004-3.4188-7.8539" fill="#fff"/><path d="m172.55-139 1.2601 3.4167c5.8494-2.1608 11.04-5.6787 15.192-10.172l-2.6734-2.4716c-3.7652 4.0753-8.4738 7.2666-13.779 9.227" fill="#fc0"/><path d="m160.24-136.81c-3.3377 0-6.5677-0.46038-9.6302-1.3212l-0.98849 3.5049c3.3765 0.95004 6.9385 1.4577 10.619 1.4577 3.6897 0 7.2602-0.51082 10.645-1.4651l-0.98884-3.5052c-3.0699 0.86608-6.3091 1.3289-9.6563 1.3289" fill="#e60000"/><g transform="translate(102.07,-229.97)" fill="#878787"><path d="m19.022 57.65c0 9.155 3.1422 17.576 8.4075 24.244l2.8589-2.2546c-4.7752-6.0477-7.6253-13.685-7.6253-21.989 0-2.6981 0.30233-5.3249 0.87278-7.8504l-3.5013-1.0315c-0.66182 2.8536-1.0125 5.8269-1.0125 8.8819"/><path d="m38.652 27.985-4.1716-1.5028c-4.2715 3.2523-7.8536 7.3622-10.491 12.074l4.1879 0.08361c2.6988-4.2492 6.2756-7.885 10.475-10.654"/><path d="m93.686 57.65c0 2.3393-0.22613 4.6257-0.65829 6.8386 0.13088-0.0056 0.26176-0.01023 0.3937-0.01023 1.1257 0 2.2052 0.19791 3.2085 0.5588 0.4572-2.3922 0.69709-4.8617 0.69709-7.3872 0-20.676-16.029-37.606-36.336-39.049l0.19826 3.6682c18.202 1.5289 32.498 16.785 32.498 35.38"/></g><path d="m134.17-148.21-2.6737 2.4716c4.155 4.4912 9.3494 8.0067 15.201 10.164l1.2608-3.4167c-5.3079-1.9569-10.019-5.1456-13.788-9.2192"/><path d="m195.49-162.46c-3.5737 0-6.4707 2.897-6.4707 6.4707s2.897 6.4703 6.4707 6.4703c3.574 0 6.4707-2.8967 6.4707-6.4703 0-3.5737-2.8967-6.4707-6.4707-6.4707"/><path d="m184.88-151.99-6.2784-2.3206-2.7273-3.0463-1.1201-3.0914-4.861-9.1931-0.92852-2.9828-1.6189-2.4271-7.7657-7.7989-1.1053-3.1285 0.266-4.97 2.4261 3.8562 0.65335 1.0749 1.6267 0.20355 2.1883 0.51012 0.7105-0.58879-0.55245-0.95603-3.0269-1.4146-3.1175-9.4517-0.2981-2.2045 0.80646-1.9967-1.1035-7.6694-1.9724-2.3506 2.4769-1.2249 0.41275-1.1067 1.1483-0.24695 0.18133-2.285 1.3289-2.0302-0.4064-3.6537-2.2331-1.8831-2.7019-0.91758-3.2276 0.67063-0.43921-1.0305-3.6153-0.76871-2.721 1.2908-4.3307 0.41522 1.4711 1.6926 5.8142 0.88513 1.9689-0.26423-0.86149 3.3729 0.26846 1.9999-0.40323 1.506-1.8951 0.99202-0.23813 0.8001 1.0149 1.4693-1.9452-0.51894-2.0243-1.1815-2.8483 1.4115 0.88795 0.43921-1.9724 1.0725-3.38 0.0596h-3.5e-4l-2.8491-0.49001-3.2099-0.16157-1.2009-1.5293-3.0914-0.60325-2.1209 0.61454 0.29387 1.7078 2.0828 1.6108 2.1918 0.4505 4.0044 1.857 3.4555 0.68616 0.26423 0.52988 5.1883 1.4425 1.5494 2.5704 1.8186 6.6203 0.88019 0.7927-2.0899 3.2823-0.92958 5.3016 0.47872 6.4643 0.43886 2.2634-3.3151-2.7256-1.8461-0.26353-7.0129-3.7285-0.78494-2.6702-1.5452-1.0396-5.8759-0.1464-3.0851 0.81034-1.3744 1.5921 0.3369 0.96979 5.1531 1.5194 6.5141 3.2664 12.941 9.4326 2.008 0.80081 2.4314-0.65053 2.9986-3.5775 4.8528 3.2241 1.1247-0.54963 4.8775 3.1641 1.3289 4.675 7.8857 8.4974 0.6537 1.9152-0.3422 1.5678 0.3422 1.3155 5.2127-0.2279 5.7263 0.2279 0.33373-0.89042z"/></g><g transform="matrix(.90303 0 0 .91336 -79.273 208.48)"><path d="m144.71-108.03h-1.004v2.969h1.004c1.2157 0 1.8517-0.5514 1.8517-1.5268 0-0.90523-0.65017-1.4422-1.8517-1.4422m-1.004 7.9167h-2.1064v-9.7544h3.0678c2.5591 0 4.0153 1.1303 4.0153 3.2234 0 1.4277-0.74966 2.4458-2.05 2.926l2.545 3.6051h-2.5591l-2.1915-3.2939h-0.72108z"/><path d="m153.44-103.71h2.2056l-1.0883-2.969h-0.0286zm0.0427-5.3016-0.36795-0.86219h2.2342l3.9159 9.7547h-2.2903l-0.70697-1.9085h-3.4495l-0.70662 1.9085h-2.2056z"/><path d="m167.96-104.16c0 2.7566-1.4563 4.2556-4.1 4.2556-2.5873 0-4.0577-1.4845-4.0577-4.2556v-5.7119h2.1068v5.726c0 1.5127 0.73484 2.347 1.9932 2.347 1.258 0 1.9794-0.83433 1.9794-2.347v-5.726h2.0782z"/><path d="m176.26-108.05h-4.1561v2.1202h3.6192v1.7533h-3.6192v2.1911h4.2976v1.8662h-6.4044v-9.7547h6.2629z"/><path d="m178.19-108.88-0.6784-0.98955h2.5164l4.1423 5.9662h0.0141v-5.9662h2.0782v9.7547h-1.8944l-4.0718-5.9376h-0.0282v5.9376h-2.0782z"/><path d="m191.95-104.17h-3.676v-1.6683h3.676z"/><path d="m137.26-90.939h-1.1451v2.3329h1.1592c1.0601 0 1.5974-0.42404 1.5974-1.1737 0-0.74931-0.5514-1.1592-1.6115-1.1592m-0.127-3.8735h-1.0181v2.262h1.0181c0.93275 0 1.4415-0.4385 1.4415-1.1596 0-0.73484-0.48013-1.1024-1.4415-1.1024m0.26847 7.9876h-3.3934v-9.7551h3.1814c2.2902 0 3.4354 0.97543 3.4354 2.5305 0 1.2587-0.67875 1.9794-1.5695 2.2479v0.0282c1.0178 0.18415 1.9089 0.97578 1.9089 2.2624 0 1.6256-1.2019 2.6861-3.5627 2.6861"/><path d="m150.55-90.869c0 2.757-1.4563 4.2556-4.1 4.2556-2.5869 0-4.0577-1.4845-4.0577-4.2556v-5.7119h2.1068v5.7263c0 1.5124 0.73484 2.3467 1.9932 2.3467 1.2584 0 1.9794-0.83433 1.9794-2.3467v-5.7263h2.0782z"/><path d="m152.63-95.589-0.6784-0.9899h2.5164l4.1423 5.9666h0.0141v-5.9666h2.0782v9.7551h-1.8944l-4.0718-5.9376h-0.0282v5.9376h-2.0782z"/><path d="m166.09-94.729h-1.1451v6.0086h1.1451c1.965 0 3.0396-1.131 3.0396-3.0678 0-1.8524-1.0887-2.9408-3.0396-2.9408m-0.11324 7.903h-3.1387v-9.7551h3.1387c3.3507 0 5.3016 1.7674 5.3016 4.7929 0 3.1242-1.9509 4.9622-5.3016 4.9622"/><path d="m179.18-94.759h-4.1561v2.1206h3.6192v1.753h-3.6192v2.1915h4.2976v1.8662h-6.4047v-9.7551h6.2633z"/><path d="m185.76-94.019c-0.28222-0.38171-0.79129-0.94721-1.7244-0.94721-0.69286 0-1.1314 0.32526-1.1314 0.86254-0.0141 0.70697 0.46673 0.96133 1.7389 1.4986 1.5836 0.6784 2.4462 1.3289 2.4462 3.0113 0 1.6683-1.2725 2.9828-3.4922 2.9828-1.7671 0-2.7425-0.89042-3.2657-1.6542l1.2725-1.385c0.29669 0.4378 0.89077 1.173 1.9509 1.173 0.89077 0 1.343-0.38135 1.343-0.96097 0-0.69286-0.43815-1.0746-1.5268-1.4845-1.4704-0.59373-2.601-1.3293-2.601-3.0819 0-1.6118 1.2862-2.7852 3.1803-2.7852 1.6263 0 2.5171 0.72073 3.0681 1.4704z"/><path d="m190.85-88.719h3.5624v1.8944h-5.6692v-9.7551h2.1068z"/><path d="m197.73-86.829h-2.1064v-9.7551h2.1064z"/><path d="m207.01-87.409c-0.6223 0.43851-1.4563 0.79164-2.8138 0.79164-2.926 0-4.8917-1.9932-4.8917-5.061 0-3.1105 2.1068-5.1178 5.0476-5.1178 1.7953 0 2.8272 0.62195 3.6188 1.6538l-1.3995 1.3148c-0.49495-0.65053-1.1165-1.0883-2.177-1.0883-1.7247 0-2.9408 1.173-2.9408 3.2089 0 1.9089 1.1596 3.181 2.884 3.181 0.90488 0 1.4422-0.19791 1.8376-0.48049v-1.3998h-2.0496v-1.682h3.9162v5.2592h-0.14146z"/><path d="m212.52-90.419h2.2052l-1.0883-2.9686h-0.0286zm0.0423-5.3016-0.36759-0.86219h2.2338l3.9162 9.7547h-2.2902l-0.70732-1.9085h-3.4491l-0.70697 1.9085h-2.2056z"/><path d="m140.06-108.02h-3.9444v2.6578h3.5627v1.7953h-3.5627v3.4498h-2.1064v-9.7546h6.0508z"/></g><g transform="matrix(.32592 0 0 .32592 158.02 84.98)" stroke-width=".5451"><path d="m-431.01 74.889v20.108h27.943c-1.227 6.4666-4.9092 11.942-10.432 15.624l16.851 13.075c9.8178-9.0623 15.482-22.373 15.482-38.186 0-3.6816-0.33033-7.2221-0.94412-10.62z" fill="#4285f4"/><path d="m-460.1 94.211-3.8005 2.9092-13.453 10.479c8.5434 16.945 26.054 28.651 46.35 28.651 14.018 0 25.771-4.6258 34.362-12.555l-16.851-13.075c-4.6258 3.1153-10.526 5.0035-17.511 5.0035-13.499 0-24.969-9.1098-29.076-21.382z" fill="#34a853"/><path d="m-477.36 61.059c-3.5399 6.9855-5.5693 14.868-5.5693 23.27 0 8.4017 2.0294 16.284 5.5693 23.27 0 0.0469 17.276-13.405 17.276-13.405-1.0384-3.1153-1.6522-6.4191-1.6522-9.8653 0-3.4461 0.61379-6.75 1.6522-9.8653z" fill="#fbbc05"/><path d="m-431.01 53.082c7.6467 0 14.444 2.6432 19.872 7.741l14.868-14.868c-9.0155-8.4017-20.721-13.547-34.74-13.547-20.296 0-37.808 11.659-46.351 28.651l17.275 13.405c4.1063-12.272 15.576-21.382 29.076-21.382z" fill="#ea4335"/></g></svg>
