<?xml version="1.0" encoding="UTF-8" standalone="no"?>
<svg
   xmlns:dc="http://purl.org/dc/elements/1.1/"
   xmlns:cc="http://creativecommons.org/ns#"
   xmlns:rdf="http://www.w3.org/1999/02/22-rdf-syntax-ns#"
   xmlns:svg="http://www.w3.org/2000/svg"
   xmlns="http://www.w3.org/2000/svg"
   viewBox="0 0 416 680"
   height="680"
   width="416"
   xml:space="preserve"
   id="svg2"
   version="1.1"><metadata
     id="metadata8"><rdf:RDF><cc:Work
         rdf:about=""><dc:format>image/svg+xml</dc:format><dc:type
           rdf:resource="http://purl.org/dc/dcmitype/StillImage" /></cc:Work></rdf:RDF></metadata><defs
     id="defs6"><clipPath
       id="clipPath56"
       clipPathUnits="userSpaceOnUse"><path
         id="path54"
         d="M 2744.37,1315.3 1560,519.82 375.625,1315.3 467.813,1933.74 649.688,1816.33 589.047,1409.5 1560,757.371 l 970.96,652.129 -47.86,321.08 214.68,-102.75 z m -2060.819,728.19 -182.137,115.66 56.031,375.89 1002.555,479.8 1002.55,-479.8 100.91,-676.93 -213.73,96.36 -66.77,447.9 L 1560,2796.23 737.047,2402.37 Z m 853.209,-816.53 c -2.13,-1.32 -4.33,-2.44 -6.49,-3.71 -4.74,3.99 -5.99,10.85 -2.49,16.13 3.77,5.67 11.41,7.21 17.08,3.44 2.76,-1.83 4.5,-4.6 5.16,-7.61 z m -28.94,-15.67 c 0.26,0.53 0.32,1.09 0.65,1.59 3.15,4.75 8.73,6.9 13.99,5.9 -4.82,-2.65 -9.71,-5.12 -14.64,-7.49 z m -4.88,5.27 c -3.78,-5.7 -11.47,-7.24 -17.16,-3.46 -5.7,3.78 -7.25,11.47 -3.46,17.16 3.78,5.7 11.47,7.25 17.16,3.46 5.7,-3.78 7.25,-11.46 3.46,-17.16 z m -40.58,-22.86 c -0.62,3.11 -0.06,6.44 1.83,9.28 3.78,5.7 11.47,7.24 17.16,3.47 1.88,-1.25 3.12,-2.99 4.05,-4.87 -7.6,-2.94 -15.28,-5.57 -23.04,-7.88 z m -6.14,53.91 c 3.35,5.05 10.15,6.41 15.2,3.06 5.04,-3.35 6.41,-10.15 3.06,-15.19 -3.35,-5.05 -10.16,-6.42 -15.2,-3.07 -5.04,3.35 -6.41,10.16 -3.06,15.2 z m 0.13,-39.42 c -3.35,-5.05 -10.16,-6.41 -15.2,-3.06 -5.04,3.35 -6.41,10.15 -3.06,15.2 3.35,5.04 10.15,6.41 15.2,3.06 5.04,-3.35 6.41,-10.16 3.06,-15.2 z m -37.74,-24.04 c -0.79,2.94 -0.47,6.16 1.35,8.9 3.35,5.04 10.15,6.41 15.2,3.06 2.88,-1.92 4.4,-4.98 4.68,-8.18 -7.04,-1.51 -14.12,-2.77 -21.23,-3.78 z m -3.99,40.23 c -4.42,2.94 -5.63,8.91 -2.69,13.32 2.94,4.43 8.9,5.63 13.32,2.69 4.42,-2.94 5.63,-8.9 2.69,-13.32 -2.94,-4.41 -8.9,-5.62 -13.32,-2.69 z m -4.81,-24.6 c -2.94,-4.41 -8.9,-5.61 -13.32,-2.67 -4.42,2.93 -5.63,8.9 -2.69,13.32 2.94,4.41 8.9,5.61 13.32,2.68 4.43,-2.93 5.63,-8.9 2.69,-13.33 z m -34.96,-18.67 c 0.25,0.7 0.4,1.4 0.82,2.03 2.94,4.43 8.9,5.63 13.32,2.69 1.65,-1.09 2.68,-2.68 3.39,-4.38 -5.84,-0.31 -11.69,-0.35 -17.53,-0.34 z m -4.89,35.26 c -3.8,2.52 -4.83,7.64 -2.31,11.43 2.52,3.8 7.65,4.84 11.44,2.32 3.8,-2.53 4.83,-7.65 2.31,-11.45 -2.52,-3.8 -7.65,-4.83 -11.44,-2.3 z m -6.69,-24.98 c -2.52,-3.8 -7.65,-4.84 -11.44,-2.31 -3.8,2.52 -4.83,7.65 -2.31,11.45 2.52,3.8 7.65,4.82 11.44,2.3 3.8,-2.52 4.83,-7.64 2.31,-11.44 z m -19.85,44.23 c -3.17,2.11 -4.04,6.39 -1.93,9.57 2.11,3.17 6.4,4.04 9.57,1.93 3.17,-2.11 4.04,-6.4 1.93,-9.57 -2.11,-3.18 -6.39,-4.03 -9.57,-1.93 z m -8.4,46.54 c -2.55,1.7 -3.24,5.13 -1.55,7.69 1.7,2.55 5.14,3.25 7.69,1.55 2.55,-1.69 3.24,-5.14 1.55,-7.69 -1.69,-2.55 -5.14,-3.24 -7.69,-1.55 z m -0.16,-71.9 c -2.11,-3.17 -6.39,-4.03 -9.57,-1.92 -3.17,2.11 -4.04,6.39 -1.93,9.56 2.11,3.18 6.4,4.04 9.57,1.93 3.17,-2.11 4.04,-6.39 1.93,-9.57 z m -17.97,44.62 c -2.55,1.69 -3.24,5.14 -1.55,7.69 1.7,2.55 5.14,3.24 7.69,1.55 2.55,-1.7 3.24,-5.14 1.55,-7.69 -1.69,-2.55 -5.14,-3.25 -7.69,-1.55 z m -12.14,-65.45 c 0.17,0.4 0.24,0.82 0.48,1.19 2.11,3.18 6.4,4.04 9.57,1.93 2.01,-1.33 2.97,-3.55 2.96,-5.79 -4.35,0.84 -8.7,1.64 -13.01,2.67 z m -5.99,38.17 c -2.55,1.7 -3.24,5.13 -1.55,7.68 1.7,2.55 5.14,3.25 7.69,1.56 2.55,-1.7 3.24,-5.14 1.55,-7.69 -1.69,-2.56 -5.14,-3.25 -7.69,-1.55 z m -8.4,46.54 c -1.93,1.28 -2.46,3.88 -1.17,5.81 1.28,1.92 3.88,2.45 5.81,1.17 1.93,-1.29 2.45,-3.88 1.17,-5.81 -1.28,-1.93 -3.89,-2.46 -5.81,-1.17 z m -2.04,-72.28 c -1.69,-2.54 -5.14,-3.24 -7.69,-1.55 -2.55,1.7 -3.24,5.14 -1.55,7.7 1.7,2.55 5.14,3.24 7.69,1.54 2.55,-1.69 3.24,-5.14 1.55,-7.69 z m -16.09,45 c -1.93,1.27 -2.46,3.88 -1.17,5.81 1.28,1.92 3.88,2.45 5.81,1.17 1.93,-1.28 2.45,-3.89 1.17,-5.81 -1.28,-1.94 -3.89,-2.45 -5.81,-1.17 z m -4.47,47.33 c -0.87,-1.31 -2.63,-1.66 -3.93,-0.79 -1.31,0.86 -1.67,2.63 -0.8,3.92 0.87,1.31 2.63,1.66 3.94,0.8 1.3,-0.86 1.66,-2.63 0.79,-3.93 z m -7.85,-73.45 c -1.28,-1.92 -3.89,-2.45 -5.81,-1.17 -1.93,1.28 -2.46,3.89 -1.17,5.81 1.28,1.93 3.88,2.45 5.81,1.17 1.92,-1.28 2.45,-3.87 1.17,-5.81 z m -10.28,46.16 c -0.87,-1.3 -2.63,-1.66 -3.93,-0.79 -1.31,0.87 -1.67,2.63 -0.8,3.94 0.87,1.3 2.63,1.66 3.94,0.79 1.3,-0.87 1.66,-2.63 0.79,-3.94 z m -10.28,46.17 c -0.45,-0.69 -1.38,-0.87 -2.06,-0.41 -0.68,0.45 -0.86,1.36 -0.41,2.05 0.45,0.68 1.37,0.87 2.05,0.42 0.69,-0.46 0.87,-1.38 0.42,-2.06 z m -7.85,-73.45 c -0.87,-1.3 -2.63,-1.66 -3.93,-0.79 -1.31,0.87 -1.67,2.62 -0.8,3.93 0.87,1.31 2.63,1.66 3.94,0.79 1.3,-0.86 1.66,-2.62 0.79,-3.93 z m -10.28,46.16 c -0.45,-0.67 -1.38,-0.86 -2.06,-0.41 -0.68,0.45 -0.86,1.38 -0.41,2.06 0.45,0.68 1.37,0.86 2.06,0.41 0.68,-0.45 0.86,-1.38 0.41,-2.06 z m -10.53,46.03 c -0.12,0.07 -0.15,0.23 -0.08,0.35 0.09,0.12 0.24,0.15 0.37,0.08 0.11,-0.08 0.15,-0.25 0.07,-0.37 -0.08,-0.11 -0.24,-0.14 -0.36,-0.06 z m -7.6,-73.3 c -0.45,-0.69 -1.38,-0.87 -2.06,-0.42 -0.68,0.45 -0.86,1.37 -0.41,2.06 0.45,0.68 1.37,0.87 2.06,0.41 0.68,-0.45 0.86,-1.37 0.41,-2.05 z m -10.53,46.01 c -0.12,0.08 -0.15,0.24 -0.08,0.36 0.09,0.12 0.24,0.15 0.37,0.07 0.11,-0.08 0.15,-0.23 0.07,-0.36 -0.08,-0.12 -0.24,-0.15 -0.36,-0.07 z m -18.13,-27.28 c -0.12,0.07 -0.15,0.24 -0.08,0.36 0.09,0.11 0.24,0.14 0.37,0.07 0.11,-0.08 0.15,-0.24 0.07,-0.36 -0.08,-0.11 -0.24,-0.15 -0.36,-0.07 z m 54.68,82.27 c 0.11,-0.08 0.15,-0.23 0.07,-0.35 -0.08,-0.12 -0.24,-0.16 -0.36,-0.08 -0.12,0.08 -0.15,0.25 -0.08,0.36 0.09,0.12 0.24,0.15 0.37,0.07 z m 18.13,27.29 c 0.11,-0.08 0.15,-0.24 0.07,-0.36 -0.08,-0.12 -0.24,-0.15 -0.36,-0.07 -0.12,0.08 -0.15,0.24 -0.08,0.36 0.09,0.12 0.24,0.14 0.37,0.07 z m 7.77,-44.81 c 0.45,0.69 1.37,0.87 2.05,0.41 0.69,-0.45 0.87,-1.37 0.42,-2.05 -0.45,-0.68 -1.37,-0.87 -2.06,-0.42 -0.68,0.46 -0.86,1.38 -0.41,2.06 z m 10.32,72.03 c 0.09,-0.06 0.11,-0.17 0.06,-0.26 -0.07,-0.09 -0.19,-0.12 -0.27,-0.06 -0.1,0.06 -0.12,0.19 -0.06,0.27 0.06,0.09 0.18,0.11 0.27,0.05 z m 7.81,-44.74 c 0.45,0.67 1.37,0.86 2.05,0.41 0.69,-0.45 0.87,-1.38 0.42,-2.06 -0.45,-0.68 -1.37,-0.86 -2.06,-0.41 -0.68,0.45 -0.87,1.37 -0.41,2.06 z m 8.02,-44.67 c 0.87,1.31 2.63,1.66 3.94,0.79 1.3,-0.87 1.66,-2.63 0.79,-3.94 -0.87,-1.29 -2.63,-1.66 -3.93,-0.79 -1.31,0.87 -1.67,2.63 -0.8,3.94 z m 10.22,71.87 c 0.41,0.63 1.25,0.8 1.88,0.38 0.62,-0.41 0.79,-1.25 0.37,-1.88 -0.41,-0.62 -1.25,-0.79 -1.88,-0.37 -0.62,0.41 -0.79,1.25 -0.37,1.87 z m 7.91,-44.59 c 0.87,1.3 2.63,1.66 3.94,0.8 1.3,-0.87 1.66,-2.63 0.79,-3.94 -0.87,-1.3 -2.63,-1.66 -3.93,-0.79 -1.31,0.87 -1.67,2.63 -0.8,3.93 z m 8.03,-44.66 c 1.28,1.93 3.88,2.45 5.81,1.17 1.93,-1.28 2.45,-3.88 1.17,-5.81 -1.28,-1.93 -3.89,-2.45 -5.81,-1.17 -1.93,1.28 -2.46,3.88 -1.17,5.81 z m 10.32,71.8 c 0.79,1.18 2.39,1.51 3.58,0.73 1.18,-0.8 1.5,-2.4 0.71,-3.59 -0.78,-1.18 -2.38,-1.5 -3.57,-0.71 -1.19,0.78 -1.51,2.38 -0.72,3.57 z m 7.81,-44.52 c 1.28,1.93 3.88,2.45 5.81,1.17 1.93,-1.28 2.45,-3.88 1.17,-5.81 -1.28,-1.93 -3.89,-2.45 -5.81,-1.17 -1.93,1.28 -2.46,3.89 -1.17,5.81 z m 18.5,27.03 c 1.15,1.72 3.47,2.19 5.19,1.05 1.72,-1.14 2.19,-3.47 1.04,-5.19 -1.14,-1.72 -3.46,-2.19 -5.18,-1.04 -1.72,1.14 -2.19,3.46 -1.05,5.18 z m 7.65,-44.41 c 1.7,2.56 5.14,3.25 7.69,1.55 2.55,-1.7 3.24,-5.14 1.55,-7.68 -1.7,-2.56 -5.14,-3.26 -7.69,-1.56 -2.55,1.7 -3.24,5.14 -1.55,7.69 z m 17.59,-42.74 c 3.17,-2.11 4.04,-6.38 1.93,-9.56 -2.11,-3.17 -6.39,-4.04 -9.57,-1.93 -3.17,2.11 -4.04,6.4 -1.93,9.57 2.11,3.17 6.4,4.03 9.57,1.92 z m 0.97,69.74 c 1.54,2.32 4.66,2.94 6.97,1.41 2.32,-1.55 2.95,-4.67 1.41,-6.98 -1.54,-2.31 -4.66,-2.95 -6.97,-1.4 -2.32,1.53 -2.95,4.66 -1.41,6.97 z m 17.16,-42.45 c 3.18,-2.11 4.04,-6.4 1.93,-9.57 -2.11,-3.17 -6.39,-4.03 -9.57,-1.92 -3.17,2.1 -4.04,6.38 -1.93,9.57 2.11,3.17 6.39,4.03 9.57,1.92 z m 9.9,-44.29 c 3.8,-2.52 4.83,-7.64 2.31,-11.44 -2.52,-3.79 -7.65,-4.83 -11.44,-2.31 -3.8,2.53 -4.83,7.65 -2.31,11.45 2.52,3.8 7.65,4.83 11.44,2.3 z m -0.75,69.25 c 1.9,2.85 5.74,3.62 8.59,1.73 2.84,-1.9 3.62,-5.73 1.73,-8.59 -1.89,-2.84 -5.74,-3.62 -8.58,-1.72 -2.85,1.89 -3.63,5.73 -1.74,8.58 z m 18.88,-41.96 c 3.8,-2.52 4.83,-7.65 2.31,-11.45 -2.52,-3.8 -7.65,-4.82 -11.44,-2.3 -3.8,2.52 -4.83,7.64 -2.31,11.44 2.52,3.8 7.65,4.83 11.44,2.31 z m 7.39,24.51 c 2.26,3.41 6.87,4.34 10.28,2.07 3.41,-2.27 4.34,-6.87 2.07,-10.28 -2.27,-3.41 -6.87,-4.34 -10.28,-2.07 -3.41,2.26 -4.34,6.87 -2.07,10.28 z m 20.64,-41.51 c 4.42,-2.94 5.63,-8.91 2.69,-13.32 -2.94,-4.43 -8.9,-5.63 -13.32,-2.69 -4.42,2.94 -5.63,8.9 -2.69,13.32 2.94,4.42 8.9,5.62 13.32,2.69 z m 5.56,24.1 c 2.67,4 8.07,5.08 12.08,2.43 4,-2.67 5.09,-8.07 2.43,-12.07 -2.66,-4.01 -8.07,-5.1 -12.07,-2.43 -4.01,2.65 -5.1,8.05 -2.44,12.07 z m 26.32,-17.49 c 3.02,4.54 9.14,5.77 13.68,2.75 4.54,-3.02 5.77,-9.14 2.75,-13.68 -3.01,-4.53 -9.13,-5.77 -13.67,-2.75 -4.54,3.01 -5.77,9.14 -2.76,13.68 z m 26.26,-17.45 c 3.39,5.09 10.28,6.48 15.38,3.09 5.1,-3.39 6.49,-10.27 3.1,-15.38 -3.39,-5.1 -10.28,-6.48 -15.38,-3.1 -5.1,3.39 -6.49,10.28 -3.1,15.39 z m 807.67,302.91 -34.28,230.14 -701.92,366.3 -209.62,-100.77 721.84,-394.81 7.58,-70.12 L 1560,1241.43 835.164,1723.09 810.816,1559.75 c -5.097,-34.23 9.954,-68.33 38.68,-87.63 L 1560,994.91 l 710.51,477.21 c 28.73,19.3 43.79,53.4 38.68,87.63 z m -321.73,798.37 c -0.13,0.07 -0.18,0.23 -0.12,0.36 0.07,0.12 0.23,0.17 0.35,0.11 0.13,-0.06 0.18,-0.22 0.12,-0.35 -0.07,-0.13 -0.21,-0.17 -0.35,-0.12 z m -387.08,23.68 c 4.78,-3.91 6.61,-10.54 3.75,-16.31 -3.32,-6.7 -11.44,-9.45 -18.14,-6.13 -4.15,2.06 -6.54,5.99 -7.15,10.25 z m 18.49,10.47 c -2.66,-3.83 -6.85,-6.11 -11.32,-6.41 z m 7.95,-24.27 c 6.09,-3.02 8.58,-10.41 5.57,-16.51 -3.02,-6.09 -10.41,-8.59 -16.51,-5.57 -6.1,3.03 -8.59,10.41 -5.57,16.51 3.02,6.1 10.41,8.59 16.51,5.57 z m -3.24,24.41 c 0.81,1.65 1.94,3.05 3.25,4.19 1.77,0.98 3.56,1.89 5.35,2.82 3.16,0.89 6.63,0.78 9.8,-0.8 6.8,-3.37 9.58,-11.6 6.22,-18.41 -3.37,-6.79 -11.61,-9.58 -18.41,-6.21 -6.8,3.37 -9.58,11.61 -6.21,18.41 z m 40.31,21.51 c -0.19,-1.47 -0.46,-2.94 -1.16,-4.35 -3.36,-6.8 -11.6,-9.58 -18.4,-6.21 -0.69,0.34 -1.15,0.92 -1.75,1.36 7.01,3.35 14.13,6.37 21.31,9.2 z m 6.85,-31.05 c 6.12,-3.03 8.63,-10.46 5.6,-16.59 -3.04,-6.12 -10.47,-8.63 -16.59,-5.6 -6.13,3.04 -8.64,10.46 -5.61,16.6 3.04,6.12 10.47,8.63 16.6,5.59 z m -2.06,23.76 c 3.04,6.12 10.46,8.63 16.59,5.6 6.13,-3.04 8.64,-10.46 5.6,-16.6 -3.03,-6.12 -10.46,-8.63 -16.59,-5.59 -6.13,3.03 -8.63,10.46 -5.6,16.59 z m 37.32,20.56 c -0.21,-0.74 -0.24,-1.49 -0.59,-2.2 -3.03,-6.12 -10.46,-8.63 -16.59,-5.6 -1.14,0.57 -2.02,1.41 -2.9,2.25 6.64,2.07 13.34,3.92 20.08,5.55 z m 8,-30.77 c 5.42,-2.69 7.64,-9.26 4.96,-14.69 -2.69,-5.43 -9.27,-7.65 -14.69,-4.96 -5.43,2.68 -7.65,9.26 -4.96,14.69 2.69,5.42 9.26,7.65 14.69,4.96 z m -0.15,24.39 c 2.68,5.43 9.26,7.65 14.68,4.96 5.43,-2.68 7.65,-9.26 4.97,-14.69 -2.69,-5.43 -9.27,-7.64 -14.7,-4.96 -5.42,2.69 -7.64,9.27 -4.95,14.69 z m 28.9,-40.14 c 4.76,-2.36 6.7,-8.12 4.35,-12.88 -2.36,-4.75 -8.12,-6.7 -12.88,-4.34 -4.75,2.35 -6.7,8.11 -4.34,12.87 2.35,4.75 8.11,6.71 12.87,4.35 z m 1.66,25 c 2.36,4.76 8.12,6.71 12.88,4.35 4.76,-2.35 6.7,-8.12 4.35,-12.87 -2.36,-4.76 -8.12,-6.7 -12.88,-4.35 -4.76,2.36 -6.7,8.12 -4.35,12.87 z m 14.54,29.36 c 0.08,0.16 0.22,0.25 0.31,0.4 5.35,0.38 10.71,0.65 16.07,0.76 1.93,-2.78 2.45,-6.43 0.84,-9.69 -2.35,-4.75 -8.12,-6.7 -12.87,-4.34 -4.76,2.35 -6.7,8.11 -4.35,12.87 z m 27.09,-40.75 c 4.09,-2.03 5.76,-6.99 3.73,-11.07 -2.02,-4.08 -6.97,-5.76 -11.05,-3.73 -4.09,2.02 -5.76,6.97 -3.74,11.06 2.02,4.09 6.98,5.76 11.06,3.74 z m 3.48,25.61 c 2.02,4.08 6.97,5.76 11.06,3.73 4.08,-2.02 5.76,-6.97 3.73,-11.05 -2.02,-4.09 -6.97,-5.76 -11.06,-3.74 -4.09,2.03 -5.76,6.98 -3.73,11.06 z m 25.27,-41.36 c 3.42,-1.7 4.82,-5.83 3.13,-9.25 -1.7,-3.42 -5.84,-4.82 -9.25,-3.13 -3.42,1.69 -4.81,5.83 -3.12,9.25 1.69,3.42 5.83,4.81 9.24,3.13 z m 5.3,26.23 c 1.69,3.41 5.83,4.81 9.25,3.12 3.4,-1.7 4.8,-5.84 3.11,-9.25 -1.69,-3.42 -5.83,-4.81 -9.24,-3.12 -3.42,1.69 -4.81,5.83 -3.12,9.25 z m 27.34,24.87 c -0.12,-0.55 -0.17,-1.11 -0.44,-1.64 -1.69,-3.42 -5.83,-4.82 -9.25,-3.13 -2.73,1.35 -4.08,4.27 -3.68,7.13 4.46,-0.73 8.93,-1.43 13.37,-2.36 z m 3.22,-40.01 c 1.36,2.74 4.69,3.87 7.44,2.51 2.74,-1.37 3.86,-4.69 2.51,-7.43 -1.36,-2.75 -4.69,-3.87 -7.44,-2.51 -2.74,1.35 -3.86,4.68 -2.51,7.43 z m 14.54,29.35 c 1.36,2.75 4.69,3.87 7.44,2.51 2.74,-1.36 3.86,-4.68 2.5,-7.43 -1.36,-2.75 -4.68,-3.87 -7.43,-2.51 -2.75,1.36 -3.87,4.69 -2.51,7.43 z m 16.03,-44.49 c 1.03,2.07 3.55,2.92 5.62,1.9 2.08,-1.03 2.93,-3.55 1.9,-5.62 -1.04,-2.08 -3.55,-2.93 -5.63,-1.9 -2.07,1.03 -2.92,3.54 -1.89,5.62 z m 14.54,29.35 c 1.03,2.08 3.54,2.93 5.62,1.9 2.07,-1.03 2.92,-3.54 1.89,-5.62 -1.02,-2.07 -3.54,-2.92 -5.61,-1.9 -2.07,1.04 -2.92,3.55 -1.9,5.62 z m 16.03,-44.49 c 0.7,1.4 2.4,1.98 3.81,1.28 1.4,-0.69 1.97,-2.4 1.27,-3.79 -0.69,-1.41 -2.39,-1.99 -3.79,-1.29 -1.41,0.69 -1.99,2.4 -1.29,3.8 z m 14.54,29.35 c 0.69,1.41 2.4,1.98 3.8,1.29 1.4,-0.69 1.98,-2.4 1.29,-3.81 -0.71,-1.39 -2.41,-1.97 -3.81,-1.28 -1.4,0.7 -1.98,2.39 -1.28,3.8 z m 16.03,-44.49 c 0.36,0.73 1.25,1.03 1.99,0.67 0.73,-0.36 1.03,-1.25 0.67,-1.99 -0.37,-0.73 -1.26,-1.02 -1.99,-0.66 -0.74,0.36 -1.04,1.25 -0.67,1.98 z m 14.53,29.35 c 0.37,0.74 1.25,1.04 2,0.68 0.73,-0.36 1.02,-1.26 0.66,-1.99 -0.36,-0.74 -1.25,-1.04 -1.98,-0.67 -0.73,0.36 -1.04,1.25 -0.68,1.98 z m 16.26,-44.31 c 0.13,-0.07 0.19,-0.22 0.12,-0.35 -0.06,-0.13 -0.21,-0.18 -0.34,-0.11 -0.13,0.06 -0.19,0.21 -0.12,0.34 0.06,0.13 0.22,0.18 0.34,0.12 z m 14.54,29.35 c 0.13,-0.06 0.18,-0.22 0.12,-0.35 -0.07,-0.13 -0.21,-0.17 -0.35,-0.12 -0.13,0.07 -0.18,0.23 -0.12,0.36 0.07,0.12 0.23,0.17 0.35,0.11 z m -29.3,-59.17 c -0.13,0.06 -0.18,0.22 -0.12,0.35 0.07,0.12 0.23,0.17 0.35,0.11 0.13,-0.06 0.18,-0.21 0.12,-0.34 -0.07,-0.13 -0.22,-0.18 -0.35,-0.12 z m -14.54,-29.35 c -0.13,0.06 -0.18,0.21 -0.11,0.34 0.06,0.13 0.21,0.19 0.34,0.12 0.13,-0.06 0.18,-0.22 0.12,-0.34 -0.07,-0.13 -0.22,-0.19 -0.35,-0.12 z m -13.37,43.46 c -0.36,-0.74 -1.25,-1.03 -1.98,-0.67 -0.74,0.36 -1.04,1.25 -0.68,1.98 0.36,0.75 1.25,1.04 1.98,0.68 0.75,-0.36 1.04,-1.25 0.68,-1.99 z m -1.16,-72.82 c -0.13,0.06 -0.18,0.22 -0.12,0.34 0.06,0.13 0.21,0.19 0.34,0.12 0.13,-0.06 0.19,-0.21 0.12,-0.34 -0.06,-0.13 -0.22,-0.19 -0.34,-0.12 z m -13.37,43.47 c -0.37,-0.74 -1.26,-1.04 -2,-0.67 -0.73,0.36 -1.03,1.25 -0.67,1.98 0.37,0.74 1.26,1.03 1.99,0.67 0.74,-0.36 1.04,-1.25 0.68,-1.98 z m -1.15,-72.76 c -0.09,0.04 -0.13,0.16 -0.08,0.25 0.05,0.1 0.16,0.14 0.26,0.09 0.1,-0.04 0.14,-0.16 0.09,-0.26 -0.05,-0.09 -0.17,-0.13 -0.27,-0.08 z m -12.46,116.05 c -0.7,-1.41 -2.4,-1.98 -3.81,-1.29 -1.4,0.69 -1.97,2.4 -1.27,3.81 0.69,1.4 2.39,1.97 3.79,1.28 1.41,-0.69 1.99,-2.4 1.29,-3.8 z m -0.93,-72.65 c -0.37,-0.73 -1.25,-1.03 -2,-0.67 -0.73,0.36 -1.02,1.25 -0.66,1.99 0.36,0.73 1.25,1.04 1.98,0.67 0.73,-0.36 1.04,-1.25 0.68,-1.99 z m -13.61,43.29 c -0.69,-1.4 -2.4,-1.98 -3.8,-1.28 -1.4,0.7 -1.98,2.4 -1.29,3.8 0.7,1.4 2.41,1.98 3.8,1.28 1.41,-0.69 1.99,-2.39 1.29,-3.8 z m -1.05,-72.58 c -0.33,-0.68 -1.15,-0.95 -1.81,-0.62 -0.67,0.33 -0.95,1.14 -0.61,1.82 0.33,0.67 1.14,0.95 1.81,0.61 0.67,-0.33 0.94,-1.15 0.61,-1.81 z m -12.55,115.88 c -1.03,-2.08 -3.55,-2.93 -5.62,-1.91 -2.08,1.04 -2.93,3.55 -1.89,5.63 1.02,2.07 3.53,2.92 5.61,1.89 2.07,-1.02 2.92,-3.54 1.9,-5.61 z m -0.94,-72.65 c -0.69,-1.41 -2.39,-1.98 -3.8,-1.29 -1.4,0.7 -1.98,2.4 -1.29,3.81 0.71,1.41 2.41,1.97 3.81,1.28 1.41,-0.7 1.97,-2.39 1.28,-3.8 z m -13.6,43.29 c -1.03,-2.08 -3.54,-2.93 -5.62,-1.89 -2.07,1.02 -2.92,3.53 -1.89,5.61 1.02,2.07 3.54,2.92 5.61,1.9 2.08,-1.03 2.93,-3.55 1.9,-5.62 z m -1.16,-72.53 c -0.64,-1.28 -2.18,-1.81 -3.46,-1.17 -1.28,0.63 -1.8,2.18 -1.16,3.46 0.62,1.28 2.17,1.79 3.44,1.17 1.28,-0.64 1.81,-2.19 1.18,-3.46 z m -12.45,115.82 c -1.35,-2.74 -4.68,-3.87 -7.43,-2.51 -2.74,1.36 -3.86,4.69 -2.51,7.43 1.37,2.75 4.69,3.87 7.43,2.51 2.75,-1.35 3.87,-4.68 2.51,-7.43 z m -0.92,-72.64 c -1.04,-2.09 -3.55,-2.92 -5.62,-1.9 -2.08,1.03 -2.93,3.54 -1.9,5.62 1.02,2.07 3.54,2.92 5.62,1.89 2.07,-1.03 2.92,-3.54 1.9,-5.61 z m -13.61,43.29 c -1.36,-2.75 -4.68,-3.87 -7.43,-2.51 -2.74,1.35 -3.87,4.68 -2.51,7.43 1.36,2.74 4.69,3.87 7.43,2.51 2.75,-1.36 3.87,-4.69 2.51,-7.43 z m -1.34,-72.45 c -0.91,-1.85 -3.16,-2.61 -5.01,-1.69 -1.85,0.91 -2.61,3.16 -1.69,5.01 0.91,1.85 3.16,2.61 5.01,1.69 1.85,-0.91 2.6,-3.16 1.69,-5.01 z m -13.2,43.09 c -1.36,-2.74 -4.69,-3.87 -7.43,-2.51 -2.74,1.36 -3.87,4.69 -2.51,7.43 1.36,2.75 4.69,3.87 7.43,2.51 2.75,-1.36 3.87,-4.69 2.51,-7.43 z m -13.6,43.29 c -1.69,-3.42 -5.83,-4.81 -9.24,-3.12 -3.42,1.7 -4.82,5.83 -3.13,9.24 1.69,3.42 5.83,4.82 9.25,3.13 3.41,-1.69 4.81,-5.83 3.12,-9.25 z m -1.4,-72.41 c -1.23,-2.49 -4.25,-3.52 -6.74,-2.28 -2.49,1.23 -3.51,4.25 -2.27,6.74 1.23,2.49 4.25,3.51 6.74,2.28 2.49,-1.23 3.51,-4.26 2.27,-6.74 z m -13.14,43.06 c -1.69,-3.42 -5.83,-4.82 -9.25,-3.13 -3.41,1.7 -4.81,5.84 -3.12,9.25 1.69,3.42 5.83,4.81 9.25,3.12 3.42,-1.69 4.82,-5.83 3.12,-9.24 z m -24.67,39.56 c -4.08,2.02 -5.75,6.97 -3.73,11.05 2.03,4.09 6.98,5.76 11.06,3.74 4.09,-2.03 5.76,-6.98 3.74,-11.06 -2.02,-4.08 -6.98,-5.76 -11.07,-3.73 z m 9.5,-68.61 c -1.52,-3.05 -5.23,-4.31 -8.3,-2.79 -3.06,1.51 -4.32,5.22 -2.8,8.29 1.52,3.07 5.24,4.32 8.3,2.8 3.06,-1.52 4.31,-5.23 2.8,-8.3 z m -12.97,42.98 c -2.02,-4.08 -6.98,-5.75 -11.06,-3.73 -4.08,2.02 -5.76,6.97 -3.73,11.06 2.02,4.09 6.97,5.76 11.06,3.74 4.08,-2.03 5.75,-6.98 3.73,-11.07 z m -15.29,-28.98 c -1.81,-3.67 -6.27,-5.17 -9.94,-3.35 -3.66,1.81 -5.17,6.27 -3.35,9.93 1.82,3.67 6.27,5.18 9.94,3.36 3.67,-1.82 5.17,-6.27 3.35,-9.94 z m -25.72,38.57 c -4.76,2.36 -6.71,8.13 -4.35,12.88 2.35,4.76 8.12,6.7 12.87,4.35 4.76,-2.37 6.71,-8.13 4.35,-12.88 -2.36,-4.76 -8.12,-6.7 -12.87,-4.35 z m -2.47,-24.61 c -2.14,-4.3 -7.36,-6.06 -11.67,-3.93 -4.31,2.14 -6.07,7.35 -3.94,11.67 2.13,4.3 7.36,6.06 11.67,3.93 4.31,-2.14 6.07,-7.35 3.94,-11.67 z m -27.49,37.93 c -5.42,2.7 -7.65,9.27 -4.96,14.7 2.69,5.42 9.26,7.65 14.69,4.96 5.43,-2.7 7.65,-9.27 4.96,-14.7 -2.69,-5.42 -9.26,-7.64 -14.69,-4.96 z m -0.83,-23.9 c -2.42,-4.89 -8.34,-6.89 -13.22,-4.47 -4.88,2.42 -6.88,8.34 -4.46,13.23 2.41,4.88 8.34,6.88 13.22,4.46 4.88,-2.42 6.88,-8.34 4.46,-13.22 z m -28.26,13.99 c -2.72,-5.49 -9.37,-7.73 -14.86,-5.02 -5.49,2.72 -7.73,9.38 -5.02,14.86 2.72,5.5 9.38,7.75 14.86,5.02 5.5,-2.71 7.74,-9.37 5.02,-14.86 z m -564.4,-200.45 464.23,222.17 679.21,-329.21 -29.21,192.76 c -4.45,29.37 -23.15,54.61 -49.92,67.43 L 1788.4,2468.3 1560,2577.61 968.148,2294.36 c -32.207,-15.41 -54.664,-45.81 -59.941,-81.12 l -42.23,-282.51 707.913,-445.68 192.25,125.53 -687.68,407.42 z" /></clipPath><linearGradient
       id="linearGradient64"
       spreadMethod="pad"
       gradientTransform="matrix(0,3247.03,3247.03,0,1560,-229.49)"
       gradientUnits="userSpaceOnUse"
       y2="0"
       x2="1"
       y1="0"
       x1="0"><stop
         id="stop58"
         offset="0"
         style="stop-opacity:1;stop-color:#7b196b" /><stop
         id="stop60"
         offset="0.929992"
         style="stop-opacity:1;stop-color:#f03948" /><stop
         id="stop62"
         offset="1"
         style="stop-opacity:1;stop-color:#f03948" /></linearGradient></defs><g
     transform="matrix(1.3333333,0,0,-1.3333333,0,680)"
     id="g10"><g
       transform="scale(0.1)"
       id="g12"><path
         id="path14"
         style="fill:#ffffff;fill-opacity:1;fill-rule:nonzero;stroke:none"
         d="m 2855.38,5081.13 c 135.17,0 245.75,-110.61 245.75,-245.8 V 1058.24 L 1560,22.7305 18.8672,1057.86 19.2227,4842.43 c 0,131.83 106.8513,238.7 238.6483,238.7 H 2855.38" /><path
         id="path16"
         style="fill:#16152e;fill-opacity:1;fill-rule:nonzero;stroke:none"
         d="M 3020,1111.87 1560,130 100,1111.51 V 4300 H 3020 V 1111.87" /><path
         id="path18"
         style="fill:#ffffff;fill-opacity:1;fill-rule:nonzero;stroke:none"
         d="m 372.137,3458.27 56.027,9.94 c 7.293,-32.49 26.191,-46.08 62.324,-46.08 27.52,0 43.758,8.29 43.758,22.55 0,13.26 -11.601,20.88 -68.289,33.47 -58.344,13.27 -85.859,33.82 -85.859,69.96 0,41.11 38.457,70.28 97.132,70.28 55.364,0 97.793,-27.52 108.403,-70.62 l -55.692,-12.26 c -7.961,23.21 -25.859,35.14 -52.711,35.14 -23.207,0 -38.125,-8.62 -38.125,-21.55 0,-10.6 10.938,-15.91 64.645,-28.17 59.008,-13.6 89.512,-35.15 89.512,-74.92 0,-43.76 -40.449,-71.95 -103.102,-71.95 -66.637,0 -109.398,30.5 -118.023,84.21" /><path
         id="path20"
         style="fill:#ffffff;fill-opacity:1;fill-rule:nonzero;stroke:none"
         d="m 609.813,3454.29 v 101.77 h 57.347 v -89.51 c 0,-26.84 11.938,-39.77 38.461,-39.77 24.863,0 41.438,15.91 41.438,39.77 v 89.51 h 57.351 v -175.7 h -55.695 v 16.91 h -0.664 c -14.254,-14.92 -33.149,-21.88 -57.68,-21.88 -49.726,0 -80.558,30.5 -80.558,78.9" /><path
         id="path22"
         style="fill:#ffffff;fill-opacity:1;fill-rule:nonzero;stroke:none"
         d="m 971.137,3468.54 c 0,24.2 -17.899,41.44 -44.09,41.44 -23.535,0 -42.102,-14.91 -42.102,-32.81 v -18.9 c 0,-18.23 16.243,-33.15 42.434,-33.15 25.527,0 43.758,17.57 43.758,43.42 z m -143.543,87.52 h 54.367 v -15.91 h 0.66 c 14.59,13.92 33.156,19.89 54.039,19.89 52.375,0 91.83,-40.77 91.83,-92.16 0,-52.7 -38.123,-92.49 -90.834,-92.49 -19.894,0 -39.453,6.63 -52.051,17.24 h -0.66 v -86.86 h -57.351 v 250.29" /><path
         id="path24"
         style="fill:#ffffff;fill-opacity:1;fill-rule:nonzero;stroke:none"
         d="m 1186.26,3488.77 c -2.32,18.9 -18.23,30.17 -42.43,30.17 -23.54,0 -40.77,-12.27 -43.09,-30.17 z m -142.54,-20.89 c 0,54.03 42.43,94.48 99.45,94.48 58.34,0 98.79,-40.78 98.79,-94.48 v -16.9 H 1100.4 c 1.66,-19.9 18.24,-31.83 46.42,-31.83 18.23,0 35.47,7.96 53.04,24.53 l 31.82,-36.46 c -23.87,-22.22 -50.39,-33.16 -86.85,-33.16 -62,0 -101.11,37.13 -101.11,93.82" /><path
         id="path26"
         style="fill:#ffffff;fill-opacity:1;fill-rule:nonzero;stroke:none"
         d="m 1265.14,3556.06 h 54.04 v -16.9 h 0.66 c 12.6,14.25 30.83,20.55 51.38,20.55 12.27,0 21.88,-1.65 31.5,-4.31 l -9.95,-51.05 c -10.27,2.32 -16.9,3.32 -26.52,3.32 -27.84,0 -43.76,-16.59 -43.76,-50.73 v -76.58 h -57.35 v 175.7" /><path
         id="path28"
         style="fill:#ffffff;fill-opacity:1;fill-rule:nonzero;stroke:none"
         d="m 1509.77,3612.42 h 59.01 v -180.34 h 118.35 v -51.72 h -177.36 v 232.06" /><path
         id="path30"
         style="fill:#ffffff;fill-opacity:1;fill-rule:nonzero;stroke:none"
         d="m 1843.25,3488.77 c -2.32,18.9 -18.23,30.17 -42.44,30.17 -23.53,0 -40.77,-12.27 -43.09,-30.17 z m -142.55,-20.89 c 0,54.03 42.43,94.48 99.46,94.48 58.34,0 98.78,-40.78 98.78,-94.48 v -16.9 h -141.55 c 1.66,-19.9 18.23,-31.83 46.41,-31.83 18.23,0 35.48,7.96 53.05,24.53 l 31.82,-36.46 c -23.88,-22.22 -50.39,-33.16 -86.86,-33.16 -61.99,0 -101.11,37.13 -101.11,93.82" /><path
         id="path32"
         style="fill:#ffffff;fill-opacity:1;fill-rule:nonzero;stroke:none"
         d="m 2035.18,3446.99 v 17.58 h -0.66 c -3.65,-5.31 -11.93,-8.62 -33.15,-12.93 -26.53,-5.3 -35.47,-9.95 -35.47,-18.9 0,-8.95 7.96,-13.26 24.53,-13.26 24.53,0 44.75,12.6 44.75,27.51 z m -124.64,-17.23 c 0,32.15 23.2,49.06 79.23,56.69 32.82,4.63 42.43,9.28 42.43,17.9 0,9.61 -11.27,15.91 -28.18,15.91 -21.88,0 -37.46,-11.28 -41.44,-29.84 l -52.38,9.29 c 6.3,36.79 44.43,62.65 92.16,62.65 54.37,0 88.19,-27.85 88.19,-72.59 v -109.41 h -52.05 v 17.57 h -0.67 c -13.26,-14.58 -34.14,-22.54 -60,-22.54 -41.1,0 -67.29,21.22 -67.29,54.37" /><path
         id="path34"
         style="fill:#ffffff;fill-opacity:1;fill-rule:nonzero;stroke:none"
         d="m 2257.61,3459.92 v 17.25 c 0,17.57 -19.56,32.48 -43.1,32.48 -28.18,0 -46.41,-16.24 -46.41,-41.11 0,-25.19 17.56,-41.1 46.08,-41.1 24.2,0 43.43,14.58 43.43,32.48 z m -138.91,-118.68 38.79,34.15 c 17.9,-20.22 33.48,-27.85 57.69,-27.85 26.51,0 45.41,15.92 45.41,39.12 v 12.6 h -0.67 c -10.6,-12.93 -30.5,-20.56 -55.36,-20.56 -55.36,0 -93.82,37.13 -93.82,89.84 0,52.39 39.79,90.83 93.49,90.83 22.21,0 43.09,-6.95 55.69,-19.55 h 0.67 v 16.24 h 54.37 v -169.4 c 0,-51.05 -41.11,-87.19 -99.78,-87.19 -40.45,0 -74.59,14.92 -96.48,41.77" /><path
         id="path36"
         style="fill:#ffffff;fill-opacity:1;fill-rule:nonzero;stroke:none"
         d="m 2333.16,3454.29 v 101.77 h 57.36 v -89.51 c 0,-26.84 11.93,-39.77 38.45,-39.77 24.87,0 41.44,15.91 41.44,39.77 v 89.51 h 57.35 v -175.7 h -55.69 v 16.91 h -0.66 c -14.26,-14.92 -33.16,-21.88 -57.69,-21.88 -49.73,0 -80.56,30.5 -80.56,78.9" /><path
         id="path38"
         style="fill:#ffffff;fill-opacity:1;fill-rule:nonzero;stroke:none"
         d="m 2692.17,3488.77 c -2.33,18.9 -18.24,30.17 -42.43,30.17 -23.54,0 -40.79,-12.27 -43.1,-30.17 z m -142.55,-20.89 c 0,54.03 42.43,94.48 99.45,94.48 58.35,0 98.79,-40.78 98.79,-94.48 v -16.9 h -141.55 c 1.66,-19.9 18.23,-31.83 46.4,-31.83 18.24,0 35.48,7.96 53.05,24.53 l 31.83,-36.46 c -23.87,-22.22 -50.39,-33.16 -86.86,-33.16 -61.99,0 -101.11,37.13 -101.11,93.82" /><path
         id="path40"
         style="fill:#ffffff;fill-opacity:1;fill-rule:nonzero;stroke:none"
         d="m 2370,3780.75 53.42,15.17 c 5.93,-19.79 24.07,-30.33 51.44,-30.33 23.09,0 35.94,4.27 35.94,11.86 0,8.58 -10.21,12.86 -44.83,18.15 -61.35,9.22 -86.4,25.39 -86.4,57.04 0,33.64 33.95,56.38 85.73,56.38 46.5,0 85.73,-21.75 95.96,-52.75 l -51.45,-15.17 c -5.93,14.83 -24.4,24.73 -46.82,24.73 -18.47,0 -29.02,-4.62 -29.02,-12.21 0,-7.59 8.58,-10.88 46.5,-16.8 60.01,-9.9 85.73,-25.4 85.73,-58.05 0,-34.95 -35.61,-57.04 -93.64,-57.04 -52.1,0 -92.99,23.74 -102.56,59.02 z m -59.99,96.95 c 15.82,3.63 20.11,9.9 20.11,25.06 h -22.09 v 56.06 h 61 v -47.81 c 0,-36.28 -19.79,-58.37 -59.02,-61.33 z m -213.96,25.06 h 55.07 v -16.16 h 0.67 c 15.16,13.85 35.93,21.1 58.7,21.1 51.1,0 85.08,-33.3 85.08,-83.09 V 3728 h -57.05 v 90.34 c 0,25.39 -14.86,39.58 -41.57,39.58 -26.36,0 -43.85,-15.83 -43.85,-39.58 V 3728 h -57.05 z m -163.5,-66.94 c 2.31,17.8 19.46,30.01 42.87,30.01 24.07,0 39.9,-11.21 42.21,-30.01 z m 140.48,-20.78 c 0,53.43 -40.23,93.98 -98.27,93.98 -56.71,0 -98.92,-40.22 -98.92,-93.98 0,-56.39 38.91,-93.31 100.58,-93.31 36.26,0 62.64,10.88 86.39,32.98 l -31.66,36.26 c -17.48,-16.48 -34.63,-24.39 -52.76,-24.39 -28.03,0 -44.52,11.86 -46.16,31.64 h 140.8 z m -513.68,87.72 h 52.44 v -16.16 h 0.66 c 11.86,13.53 30.99,21.1 53.08,21.1 22.09,0 43.19,-8.89 55.4,-23.75 h 0.66 c 14.84,15.18 35.94,23.75 59.03,23.75 46.82,0 81.77,-30.67 81.77,-74.52 V 3728 h -55.4 v 96.61 c 0,21.42 -13.85,34.62 -34.62,34.62 -21.1,0 -35.28,-13.52 -35.28,-34.62 V 3728 h -52.44 v 96.61 c 0,21.42 -13.85,34.62 -34.62,34.62 -21.1,0 -35.28,-13.52 -35.28,-34.62 V 3728 h -55.4 z m -117.99,-131.25 c -27.37,0 -44.51,18.8 -44.51,43.87 0,25.38 17.14,43.85 44.51,43.85 27.05,0 44.51,-18.47 44.51,-43.85 0,-25.07 -17.46,-43.87 -44.51,-43.87 z m 0,137.51 c -59.03,0 -101.56,-39.57 -101.56,-93.64 0,-54.08 42.53,-93.65 101.56,-93.65 59.03,0 101.57,39.57 101.57,93.65 0,54.07 -42.54,93.64 -101.57,93.64 z m -437.83,49.8 h 60.68 l 36.27,-150.03 h 0.66 l 55.07,150.03 h 46.16 l 55.4,-150.03 h 0.67 l 36.26,150.03 h 60.68 L 1297.01,3728 h -61.66 l -55.73,147.39 h -0.66 L 1122.9,3728 h -61.01 l -58.36,230.82" /><path
         id="path42"
         style="fill:#ffffff;fill-opacity:1;fill-rule:nonzero;stroke:none"
         d="M 700.074,3855.94 H 612.5 v 51.76 h 110.723 l 22.855,51.12 H 553.797 V 3728 H 612.5 v 79.14 h 65.75 z m 153.348,-43.86 -34.625,84.09 h -0.656 l -34.625,-84.09 z m 20.449,-49.79 H 763.07 L 748.891,3728 h -60.996 l 103.207,230.82 h 54.41 L 948.727,3728 h -60.68 l -14.176,34.29" /><path
         id="path44"
         style="fill:#4db0e7;fill-opacity:1;fill-rule:nonzero;stroke:none"
         d="M 2855.38,5100 H 257.871 C 115.879,5100 0.355469,4984.45 0.355469,4842.43 L 0,1057.86 V 1047.8 L 8.34766,1042.2 1549.49,7.07031 1560,0 1570.52,7.07031 3111.65,1042.58 l 8.35,5.6 v 10.06 3777.09 c 0,145.94 -118.7,264.67 -264.62,264.67 z m 0,-18.87 c 135.17,0 245.75,-110.61 245.75,-245.8 V 1058.24 L 1560,22.7305 18.8672,1057.86 19.2227,4842.43 c 0,131.83 106.8513,238.7 238.6483,238.7 H 2855.38" /><path
         id="path46"
         style="fill:#4db0e7;fill-opacity:1;fill-rule:nonzero;stroke:none"
         d="m 2726.38,4750.51 c -12.32,22.13 -38.7,39.08 -67.45,39.08 -25.19,0 -47.45,-10.42 -47.45,-37.18 0,-22.64 27.93,-37.96 57.03,-56.75 31.82,-19.9 64.74,-44.45 64.74,-86.92 0,-55.56 -53.96,-89.56 -116.41,-89.56 -25.69,0 -52.55,4.87 -82.71,16.3 l 4.94,74.04 c 14.61,-29.48 41.79,-52.93 81.98,-52.93 30.95,0 54.02,14.98 54.02,41.12 0,22.1 -18.85,35.88 -41.77,49.73 -48.19,29.1 -78.92,52.36 -78.92,94.66 0,63.11 52.87,84.23 107.6,84.23 31.84,0 51.74,-5.9 72.08,-5.9 z m -267.73,-66.34 c -6.91,-11.53 -15.7,-27.15 -20.98,-38.7 -4.71,-21.76 -6.99,-50.91 -6.99,-83.13 0,-13.41 2.28,-31.39 8.39,-37.44 h -80.06 c 14.23,13.37 19.97,95.68 19.16,121.75 -10.74,37.24 -25.26,72.75 -47.53,116.07 -14.03,27.16 -30.66,52.83 -40.93,57.71 18,1.66 40.93,2.74 52.1,2.74 19.99,0 25.23,-2.74 37.48,-29.38 19.19,-43.28 33.44,-75.92 41.78,-100.12 20.32,31.9 34.53,53.76 52.98,83.54 4.55,7.34 8.38,16.58 8.38,25.36 0,6.84 -1.2,14.57 -4.22,17.86 h 79.21 c -15.27,-3.29 -84.22,-111.79 -98.77,-136.26 m -278.47,67.04 -47.5,-103.02 h 77.34 l -29.84,103.02 m 92.98,-229.16 c -25.15,0 -27.1,0.82 -47.49,70.5 l -7.19,25.81 c -12.35,-5.84 -34.09,-8.52 -68.91,-8.52 h -35.26 l -6.09,-12.98 c -8.86,-19.54 -20.78,-42.5 -20.78,-58.59 0,-3.84 0.46,-8.04 1.94,-13.37 h -209.16 c 11.9,13.37 15.7,56.64 21.43,135.14 l 1.28,18.75 c 2.95,44.84 5.25,79.32 4.9,103.53 -0.4,19.79 -2.33,32.55 -7.75,38.11 h 80.93 c -11.47,-8.75 -15.73,-56.16 -21.06,-134.69 l -1.61,-18.81 c -1.85,-29.09 -5.72,-59.12 -5.72,-88.05 0,-13.39 5.38,-16.54 19.18,-16.54 49.03,0 61.35,1.14 83.47,16.14 13.87,25.21 29.5,57.13 44.85,89.91 l 20.7,44.14 c 19.54,41.42 38.65,83.53 38.65,91.54 0,5.82 -1.46,11.14 -3.81,16.36 h 64.39 c 0,0 26.01,-96.39 31.76,-117.11 l 12.6,-46.62 c 21.82,-78.67 35.57,-116.86 54.02,-131.8 -15.32,-2.03 -37.19,-2.85 -45.27,-2.85 m -521.28,-2.87 c -76.17,0 -120.23,62.7 -120.23,133.17 0,98.16 53.23,173.98 154.74,173.98 31.72,0 46.76,-5.9 72.45,-5.9 l -7.7,-75.36 c -14.57,26.47 -38.26,44.52 -70.18,44.52 -63.12,0 -88.83,-68.28 -88.83,-126.83 0,-63.67 35.67,-98.46 83.15,-98.46 25.7,0 48.25,6.88 86.17,33.41 -15.34,-49.16 -50.93,-78.53 -109.57,-78.53 m -264.24,265.37 c -7.32,0 -16.06,0 -23.02,-0.78 -2.27,-12.58 -4.19,-34.43 -6.84,-69.7 l -1.62,-20.68 c 3.88,-0.71 8.83,-1.14 13.44,-1.14 36.81,0 62.04,22.2 62.04,55.87 0,23.07 -16.06,36.43 -44,36.43 m 106.87,-272.37 c -21.87,0 -27.15,3.5 -34.45,13.5 l -82.85,114.78 c -6.44,8.93 -11.45,16.24 -21.74,16.24 h -1.9 l -1.54,-22.25 c -1.97,-30.37 -3.07,-54.41 -3.07,-72.48 0.29,-19.85 2.64,-32.12 8.04,-37.07 h -80.05 c 11.45,10.24 15.76,44.76 22.3,135.14 l 1.04,18.75 c 3.06,44.44 5.33,78.92 5.04,103.05 -0.35,21.11 -2.67,34.05 -8.46,38.59 45.59,0 109.13,0 109.13,0 35.65,0 84.65,-6.02 84.65,-63.84 0,-47.55 -31.8,-73.51 -71.16,-85.78 3.79,-3.5 10.61,-12.24 14.85,-17.68 l 60.17,-79.69 c 37.52,-49.39 40.57,-51.64 53.95,-58.56 -16.81,-1.93 -39.39,-2.7 -53.95,-2.7 m -373.07,239.03 -47.91,-103.02 h 77.75 l -29.84,103.02 m 93.06,-229.16 c -25.3,0 -27.25,0.82 -47.51,70.5 l -7.29,25.81 c -12.23,-5.84 -34.01,-8.52 -68.95,-8.52 h -35.2 l -6.09,-12.98 c -6.22,-13.72 -21.07,-42.11 -20.74,-58.59 0,-3.84 0.4,-7.64 1.91,-13.37 h -70.87 c 20.4,20.21 45.94,67.36 81.52,143.49 l 20.73,44.14 c 18.77,39.88 38.72,85.03 38.72,91.54 0,5.82 -1.52,11.14 -3.86,16.36 h 64.39 c 0,0 16.79,-63.84 31.8,-117.11 l 12.66,-46.62 c 21.87,-78.67 35.65,-116.86 53.94,-131.8 -16.42,-2.03 -37.15,-2.85 -45.16,-2.85 m -364.695,262.83 c -5.735,0 -13.371,0 -20.703,-0.76 -3.008,-20.57 -4.918,-40.56 -6.457,-62.4 0,0 -1.114,-18.77 -1.114,-17.98 h 7.571 c 37.582,0 72.108,13.06 72.108,47.47 0,19.98 -16.507,33.67 -51.405,33.67 m -9.532,-117.2 h -20.976 l -3.141,-43.6 c -1.488,-19.12 -2.304,-35.19 -2.652,-54.42 0,-2.67 8.371,-8.37 28.25,-8.37 41.336,0 68.706,20.59 68.706,54.69 0,37.95 -31.105,51.7 -70.187,51.7 m 4.551,-142.78 H 841.43 c 13.047,11.48 16.476,56.27 22.14,135.14 l 1.27,18.44 c 3.012,44.75 5.414,79.23 4.973,103.36 -0.415,20.73 -2.735,34.05 -8.446,38.59 h 115.61 c 27.603,0 82.783,-1.45 82.783,-58.89 0,-38.31 -35.57,-62.04 -68.225,-70.49 46.085,-4.55 80.495,-26.78 80.495,-74.23 0,-51.33 -48.28,-91.92 -127.206,-91.92" /><path
         id="path48"
         style="fill:#4db0e7;fill-opacity:1;fill-rule:nonzero;stroke:none"
         d="m 737.535,4703.18 c 0,-50.99 -15.347,-95.64 -41.023,-132.69 -0.801,-1.13 -1.942,-1.2 -3.02,-0.13 -11.91,12.02 -23.078,26.66 -30.273,41.12 -1.727,-1.17 -3.289,-3.72 -3.289,-7.14 0,-11.54 9.234,-34.98 18.613,-50.19 4.25,-6.88 -2.16,-11.85 -8.539,-8.01 -19.891,15.27 -42.172,43.98 -54.734,73.45 -2.219,-1.47 -3.809,-4.82 -3.809,-8.57 0,-11.42 13.777,-48.46 44.016,-83.98 0.793,-0.98 0.711,-1.95 -0.098,-2.67 -29.914,-26.46 -66.281,-47.05 -105.656,-60.74 -39.383,13.69 -75.743,34.28 -105.657,60.74 -0.816,0.72 -0.914,1.69 -0.097,2.67 30.238,35.52 43.984,72.56 43.984,83.98 0,3.75 -1.562,7.1 -3.773,8.57 -12.575,-29.47 -34.852,-58.18 -54.766,-73.45 -6.476,-4.2 -12.769,1.13 -8.527,8.01 9.383,15.21 18.625,38.65 18.625,50.19 0,3.42 -1.578,5.97 -3.313,7.14 -7.187,-14.46 -18.344,-29.1 -30.265,-41.12 -1.071,-1.07 -2.207,-1 -2.996,0.13 -25.711,37.05 -41.028,81.7 -41.028,132.69 0,89.25 37.621,116.34 70.145,116.34 21.488,0.03 35.855,-11.81 35.855,-26.57 0,-7.91 -4.762,-15.92 -12.23,-17.74 5.066,-8.11 15.664,-11.23 27.836,-10.81 22.343,0.74 36.425,13.99 37.433,44.57 0.676,19.76 -14.859,26.11 -27.894,26.08 -8.422,0 -11.883,-1.57 -13.715,-4.4 -7.047,10.19 4.258,30.15 33.519,30.15 2.793,0 3.473,0 6.852,0 2.086,2.59 5.543,5.21 10.559,5.37 6.906,0.2 19.054,0.06 27.445,-2.63 18.765,-6.12 22.109,-20.72 23.113,-51.25 1.047,-30.57 12.742,-47.15 35.082,-47.89 12.184,-0.42 22.793,2.7 27.867,10.81 -7.511,1.82 -12.257,9.83 -12.257,17.74 0,14.76 14.363,26.6 35.863,26.57 32.535,0 70.152,-27.09 70.152,-116.34" /><g
         id="g50"><g
           clip-path="url(#clipPath56)"
           id="g52"><path
             id="path66"
             style="fill:url(#linearGradient64);fill-opacity:1;fill-rule:nonzero;stroke:none"
             d="M 2744.37,1315.3 1560,519.82 375.625,1315.3 467.813,1933.74 649.688,1816.33 589.047,1409.5 1560,757.371 l 970.96,652.129 -47.86,321.08 214.68,-102.75 z m -2060.819,728.19 -182.137,115.66 56.031,375.89 1002.555,479.8 1002.55,-479.8 100.91,-676.93 -213.73,96.36 -66.77,447.9 L 1560,2796.23 737.047,2402.37 Z m 853.209,-816.53 c -2.13,-1.32 -4.33,-2.44 -6.49,-3.71 -4.74,3.99 -5.99,10.85 -2.49,16.13 3.77,5.67 11.41,7.21 17.08,3.44 2.76,-1.83 4.5,-4.6 5.16,-7.61 z m -28.94,-15.67 c 0.26,0.53 0.32,1.09 0.65,1.59 3.15,4.75 8.73,6.9 13.99,5.9 -4.82,-2.65 -9.71,-5.12 -14.64,-7.49 z m -4.88,5.27 c -3.78,-5.7 -11.47,-7.24 -17.16,-3.46 -5.7,3.78 -7.25,11.47 -3.46,17.16 3.78,5.7 11.47,7.25 17.16,3.46 5.7,-3.78 7.25,-11.46 3.46,-17.16 z m -40.58,-22.86 c -0.62,3.11 -0.06,6.44 1.83,9.28 3.78,5.7 11.47,7.24 17.16,3.47 1.88,-1.25 3.12,-2.99 4.05,-4.87 -7.6,-2.94 -15.28,-5.57 -23.04,-7.88 z m -6.14,53.91 c 3.35,5.05 10.15,6.41 15.2,3.06 5.04,-3.35 6.41,-10.15 3.06,-15.19 -3.35,-5.05 -10.16,-6.42 -15.2,-3.07 -5.04,3.35 -6.41,10.16 -3.06,15.2 z m 0.13,-39.42 c -3.35,-5.05 -10.16,-6.41 -15.2,-3.06 -5.04,3.35 -6.41,10.15 -3.06,15.2 3.35,5.04 10.15,6.41 15.2,3.06 5.04,-3.35 6.41,-10.16 3.06,-15.2 z m -37.74,-24.04 c -0.79,2.94 -0.47,6.16 1.35,8.9 3.35,5.04 10.15,6.41 15.2,3.06 2.88,-1.92 4.4,-4.98 4.68,-8.18 -7.04,-1.51 -14.12,-2.77 -21.23,-3.78 z m -3.99,40.23 c -4.42,2.94 -5.63,8.91 -2.69,13.32 2.94,4.43 8.9,5.63 13.32,2.69 4.42,-2.94 5.63,-8.9 2.69,-13.32 -2.94,-4.41 -8.9,-5.62 -13.32,-2.69 z m -4.81,-24.6 c -2.94,-4.41 -8.9,-5.61 -13.32,-2.67 -4.42,2.93 -5.63,8.9 -2.69,13.32 2.94,4.41 8.9,5.61 13.32,2.68 4.43,-2.93 5.63,-8.9 2.69,-13.33 z m -34.96,-18.67 c 0.25,0.7 0.4,1.4 0.82,2.03 2.94,4.43 8.9,5.63 13.32,2.69 1.65,-1.09 2.68,-2.68 3.39,-4.38 -5.84,-0.31 -11.69,-0.35 -17.53,-0.34 z m -4.89,35.26 c -3.8,2.52 -4.83,7.64 -2.31,11.43 2.52,3.8 7.65,4.84 11.44,2.32 3.8,-2.53 4.83,-7.65 2.31,-11.45 -2.52,-3.8 -7.65,-4.83 -11.44,-2.3 z m -6.69,-24.98 c -2.52,-3.8 -7.65,-4.84 -11.44,-2.31 -3.8,2.52 -4.83,7.65 -2.31,11.45 2.52,3.8 7.65,4.82 11.44,2.3 3.8,-2.52 4.83,-7.64 2.31,-11.44 z m -19.85,44.23 c -3.17,2.11 -4.04,6.39 -1.93,9.57 2.11,3.17 6.4,4.04 9.57,1.93 3.17,-2.11 4.04,-6.4 1.93,-9.57 -2.11,-3.18 -6.39,-4.03 -9.57,-1.93 z m -8.4,46.54 c -2.55,1.7 -3.24,5.13 -1.55,7.69 1.7,2.55 5.14,3.25 7.69,1.55 2.55,-1.69 3.24,-5.14 1.55,-7.69 -1.69,-2.55 -5.14,-3.24 -7.69,-1.55 z m -0.16,-71.9 c -2.11,-3.17 -6.39,-4.03 -9.57,-1.92 -3.17,2.11 -4.04,6.39 -1.93,9.56 2.11,3.18 6.4,4.04 9.57,1.93 3.17,-2.11 4.04,-6.39 1.93,-9.57 z m -17.97,44.62 c -2.55,1.69 -3.24,5.14 -1.55,7.69 1.7,2.55 5.14,3.24 7.69,1.55 2.55,-1.7 3.24,-5.14 1.55,-7.69 -1.69,-2.55 -5.14,-3.25 -7.69,-1.55 z m -12.14,-65.45 c 0.17,0.4 0.24,0.82 0.48,1.19 2.11,3.18 6.4,4.04 9.57,1.93 2.01,-1.33 2.97,-3.55 2.96,-5.79 -4.35,0.84 -8.7,1.64 -13.01,2.67 z m -5.99,38.17 c -2.55,1.7 -3.24,5.13 -1.55,7.68 1.7,2.55 5.14,3.25 7.69,1.56 2.55,-1.7 3.24,-5.14 1.55,-7.69 -1.69,-2.56 -5.14,-3.25 -7.69,-1.55 z m -8.4,46.54 c -1.93,1.28 -2.46,3.88 -1.17,5.81 1.28,1.92 3.88,2.45 5.81,1.17 1.93,-1.29 2.45,-3.88 1.17,-5.81 -1.28,-1.93 -3.89,-2.46 -5.81,-1.17 z m -2.04,-72.28 c -1.69,-2.54 -5.14,-3.24 -7.69,-1.55 -2.55,1.7 -3.24,5.14 -1.55,7.7 1.7,2.55 5.14,3.24 7.69,1.54 2.55,-1.69 3.24,-5.14 1.55,-7.69 z m -16.09,45 c -1.93,1.27 -2.46,3.88 -1.17,5.81 1.28,1.92 3.88,2.45 5.81,1.17 1.93,-1.28 2.45,-3.89 1.17,-5.81 -1.28,-1.94 -3.89,-2.45 -5.81,-1.17 z m -4.47,47.33 c -0.87,-1.31 -2.63,-1.66 -3.93,-0.79 -1.31,0.86 -1.67,2.63 -0.8,3.92 0.87,1.31 2.63,1.66 3.94,0.8 1.3,-0.86 1.66,-2.63 0.79,-3.93 z m -7.85,-73.45 c -1.28,-1.92 -3.89,-2.45 -5.81,-1.17 -1.93,1.28 -2.46,3.89 -1.17,5.81 1.28,1.93 3.88,2.45 5.81,1.17 1.92,-1.28 2.45,-3.87 1.17,-5.81 z m -10.28,46.16 c -0.87,-1.3 -2.63,-1.66 -3.93,-0.79 -1.31,0.87 -1.67,2.63 -0.8,3.94 0.87,1.3 2.63,1.66 3.94,0.79 1.3,-0.87 1.66,-2.63 0.79,-3.94 z m -10.28,46.17 c -0.45,-0.69 -1.38,-0.87 -2.06,-0.41 -0.68,0.45 -0.86,1.36 -0.41,2.05 0.45,0.68 1.37,0.87 2.05,0.42 0.69,-0.46 0.87,-1.38 0.42,-2.06 z m -7.85,-73.45 c -0.87,-1.3 -2.63,-1.66 -3.93,-0.79 -1.31,0.87 -1.67,2.62 -0.8,3.93 0.87,1.31 2.63,1.66 3.94,0.79 1.3,-0.86 1.66,-2.62 0.79,-3.93 z m -10.28,46.16 c -0.45,-0.67 -1.38,-0.86 -2.06,-0.41 -0.68,0.45 -0.86,1.38 -0.41,2.06 0.45,0.68 1.37,0.86 2.06,0.41 0.68,-0.45 0.86,-1.38 0.41,-2.06 z m -10.53,46.03 c -0.12,0.07 -0.15,0.23 -0.08,0.35 0.09,0.12 0.24,0.15 0.37,0.08 0.11,-0.08 0.15,-0.25 0.07,-0.37 -0.08,-0.11 -0.24,-0.14 -0.36,-0.06 z m -7.6,-73.3 c -0.45,-0.69 -1.38,-0.87 -2.06,-0.42 -0.68,0.45 -0.86,1.37 -0.41,2.06 0.45,0.68 1.37,0.87 2.06,0.41 0.68,-0.45 0.86,-1.37 0.41,-2.05 z m -10.53,46.01 c -0.12,0.08 -0.15,0.24 -0.08,0.36 0.09,0.12 0.24,0.15 0.37,0.07 0.11,-0.08 0.15,-0.23 0.07,-0.36 -0.08,-0.12 -0.24,-0.15 -0.36,-0.07 z m -18.13,-27.28 c -0.12,0.07 -0.15,0.24 -0.08,0.36 0.09,0.11 0.24,0.14 0.37,0.07 0.11,-0.08 0.15,-0.24 0.07,-0.36 -0.08,-0.11 -0.24,-0.15 -0.36,-0.07 z m 54.68,82.27 c 0.11,-0.08 0.15,-0.23 0.07,-0.35 -0.08,-0.12 -0.24,-0.16 -0.36,-0.08 -0.12,0.08 -0.15,0.25 -0.08,0.36 0.09,0.12 0.24,0.15 0.37,0.07 z m 18.13,27.29 c 0.11,-0.08 0.15,-0.24 0.07,-0.36 -0.08,-0.12 -0.24,-0.15 -0.36,-0.07 -0.12,0.08 -0.15,0.24 -0.08,0.36 0.09,0.12 0.24,0.14 0.37,0.07 z m 7.77,-44.81 c 0.45,0.69 1.37,0.87 2.05,0.41 0.69,-0.45 0.87,-1.37 0.42,-2.05 -0.45,-0.68 -1.37,-0.87 -2.06,-0.42 -0.68,0.46 -0.86,1.38 -0.41,2.06 z m 10.32,72.03 c 0.09,-0.06 0.11,-0.17 0.06,-0.26 -0.07,-0.09 -0.19,-0.12 -0.27,-0.06 -0.1,0.06 -0.12,0.19 -0.06,0.27 0.06,0.09 0.18,0.11 0.27,0.05 z m 7.81,-44.74 c 0.45,0.67 1.37,0.86 2.05,0.41 0.69,-0.45 0.87,-1.38 0.42,-2.06 -0.45,-0.68 -1.37,-0.86 -2.06,-0.41 -0.68,0.45 -0.87,1.37 -0.41,2.06 z m 8.02,-44.67 c 0.87,1.31 2.63,1.66 3.94,0.79 1.3,-0.87 1.66,-2.63 0.79,-3.94 -0.87,-1.29 -2.63,-1.66 -3.93,-0.79 -1.31,0.87 -1.67,2.63 -0.8,3.94 z m 10.22,71.87 c 0.41,0.63 1.25,0.8 1.88,0.38 0.62,-0.41 0.79,-1.25 0.37,-1.88 -0.41,-0.62 -1.25,-0.79 -1.88,-0.37 -0.62,0.41 -0.79,1.25 -0.37,1.87 z m 7.91,-44.59 c 0.87,1.3 2.63,1.66 3.94,0.8 1.3,-0.87 1.66,-2.63 0.79,-3.94 -0.87,-1.3 -2.63,-1.66 -3.93,-0.79 -1.31,0.87 -1.67,2.63 -0.8,3.93 z m 8.03,-44.66 c 1.28,1.93 3.88,2.45 5.81,1.17 1.93,-1.28 2.45,-3.88 1.17,-5.81 -1.28,-1.93 -3.89,-2.45 -5.81,-1.17 -1.93,1.28 -2.46,3.88 -1.17,5.81 z m 10.32,71.8 c 0.79,1.18 2.39,1.51 3.58,0.73 1.18,-0.8 1.5,-2.4 0.71,-3.59 -0.78,-1.18 -2.38,-1.5 -3.57,-0.71 -1.19,0.78 -1.51,2.38 -0.72,3.57 z m 7.81,-44.52 c 1.28,1.93 3.88,2.45 5.81,1.17 1.93,-1.28 2.45,-3.88 1.17,-5.81 -1.28,-1.93 -3.89,-2.45 -5.81,-1.17 -1.93,1.28 -2.46,3.89 -1.17,5.81 z m 18.5,27.03 c 1.15,1.72 3.47,2.19 5.19,1.05 1.72,-1.14 2.19,-3.47 1.04,-5.19 -1.14,-1.72 -3.46,-2.19 -5.18,-1.04 -1.72,1.14 -2.19,3.46 -1.05,5.18 z m 7.65,-44.41 c 1.7,2.56 5.14,3.25 7.69,1.55 2.55,-1.7 3.24,-5.14 1.55,-7.68 -1.7,-2.56 -5.14,-3.26 -7.69,-1.56 -2.55,1.7 -3.24,5.14 -1.55,7.69 z m 17.59,-42.74 c 3.17,-2.11 4.04,-6.38 1.93,-9.56 -2.11,-3.17 -6.39,-4.04 -9.57,-1.93 -3.17,2.11 -4.04,6.4 -1.93,9.57 2.11,3.17 6.4,4.03 9.57,1.92 z m 0.97,69.74 c 1.54,2.32 4.66,2.94 6.97,1.41 2.32,-1.55 2.95,-4.67 1.41,-6.98 -1.54,-2.31 -4.66,-2.95 -6.97,-1.4 -2.32,1.53 -2.95,4.66 -1.41,6.97 z m 17.16,-42.45 c 3.18,-2.11 4.04,-6.4 1.93,-9.57 -2.11,-3.17 -6.39,-4.03 -9.57,-1.92 -3.17,2.1 -4.04,6.38 -1.93,9.57 2.11,3.17 6.39,4.03 9.57,1.92 z m 9.9,-44.29 c 3.8,-2.52 4.83,-7.64 2.31,-11.44 -2.52,-3.79 -7.65,-4.83 -11.44,-2.31 -3.8,2.53 -4.83,7.65 -2.31,11.45 2.52,3.8 7.65,4.83 11.44,2.3 z m -0.75,69.25 c 1.9,2.85 5.74,3.62 8.59,1.73 2.84,-1.9 3.62,-5.73 1.73,-8.59 -1.89,-2.84 -5.74,-3.62 -8.58,-1.72 -2.85,1.89 -3.63,5.73 -1.74,8.58 z m 18.88,-41.96 c 3.8,-2.52 4.83,-7.65 2.31,-11.45 -2.52,-3.8 -7.65,-4.82 -11.44,-2.3 -3.8,2.52 -4.83,7.64 -2.31,11.44 2.52,3.8 7.65,4.83 11.44,2.31 z m 7.39,24.51 c 2.26,3.41 6.87,4.34 10.28,2.07 3.41,-2.27 4.34,-6.87 2.07,-10.28 -2.27,-3.41 -6.87,-4.34 -10.28,-2.07 -3.41,2.26 -4.34,6.87 -2.07,10.28 z m 20.64,-41.51 c 4.42,-2.94 5.63,-8.91 2.69,-13.32 -2.94,-4.43 -8.9,-5.63 -13.32,-2.69 -4.42,2.94 -5.63,8.9 -2.69,13.32 2.94,4.42 8.9,5.62 13.32,2.69 z m 5.56,24.1 c 2.67,4 8.07,5.08 12.08,2.43 4,-2.67 5.09,-8.07 2.43,-12.07 -2.66,-4.01 -8.07,-5.1 -12.07,-2.43 -4.01,2.65 -5.1,8.05 -2.44,12.07 z m 26.32,-17.49 c 3.02,4.54 9.14,5.77 13.68,2.75 4.54,-3.02 5.77,-9.14 2.75,-13.68 -3.01,-4.53 -9.13,-5.77 -13.67,-2.75 -4.54,3.01 -5.77,9.14 -2.76,13.68 z m 26.26,-17.45 c 3.39,5.09 10.28,6.48 15.38,3.09 5.1,-3.39 6.49,-10.27 3.1,-15.38 -3.39,-5.1 -10.28,-6.48 -15.38,-3.1 -5.1,3.39 -6.49,10.28 -3.1,15.39 z m 807.67,302.91 -34.28,230.14 -701.92,366.3 -209.62,-100.77 721.84,-394.81 7.58,-70.12 L 1560,1241.43 835.164,1723.09 810.816,1559.75 c -5.097,-34.23 9.954,-68.33 38.68,-87.63 L 1560,994.91 l 710.51,477.21 c 28.73,19.3 43.79,53.4 38.68,87.63 z m -321.73,798.37 c -0.13,0.07 -0.18,0.23 -0.12,0.36 0.07,0.12 0.23,0.17 0.35,0.11 0.13,-0.06 0.18,-0.22 0.12,-0.35 -0.07,-0.13 -0.21,-0.17 -0.35,-0.12 z m -387.08,23.68 c 4.78,-3.91 6.61,-10.54 3.75,-16.31 -3.32,-6.7 -11.44,-9.45 -18.14,-6.13 -4.15,2.06 -6.54,5.99 -7.15,10.25 z m 18.49,10.47 c -2.66,-3.83 -6.85,-6.11 -11.32,-6.41 z m 7.95,-24.27 c 6.09,-3.02 8.58,-10.41 5.57,-16.51 -3.02,-6.09 -10.41,-8.59 -16.51,-5.57 -6.1,3.03 -8.59,10.41 -5.57,16.51 3.02,6.1 10.41,8.59 16.51,5.57 z m -3.24,24.41 c 0.81,1.65 1.94,3.05 3.25,4.19 1.77,0.98 3.56,1.89 5.35,2.82 3.16,0.89 6.63,0.78 9.8,-0.8 6.8,-3.37 9.58,-11.6 6.22,-18.41 -3.37,-6.79 -11.61,-9.58 -18.41,-6.21 -6.8,3.37 -9.58,11.61 -6.21,18.41 z m 40.31,21.51 c -0.19,-1.47 -0.46,-2.94 -1.16,-4.35 -3.36,-6.8 -11.6,-9.58 -18.4,-6.21 -0.69,0.34 -1.15,0.92 -1.75,1.36 7.01,3.35 14.13,6.37 21.31,9.2 z m 6.85,-31.05 c 6.12,-3.03 8.63,-10.46 5.6,-16.59 -3.04,-6.12 -10.47,-8.63 -16.59,-5.6 -6.13,3.04 -8.64,10.46 -5.61,16.6 3.04,6.12 10.47,8.63 16.6,5.59 z m -2.06,23.76 c 3.04,6.12 10.46,8.63 16.59,5.6 6.13,-3.04 8.64,-10.46 5.6,-16.6 -3.03,-6.12 -10.46,-8.63 -16.59,-5.59 -6.13,3.03 -8.63,10.46 -5.6,16.59 z m 37.32,20.56 c -0.21,-0.74 -0.24,-1.49 -0.59,-2.2 -3.03,-6.12 -10.46,-8.63 -16.59,-5.6 -1.14,0.57 -2.02,1.41 -2.9,2.25 6.64,2.07 13.34,3.92 20.08,5.55 z m 8,-30.77 c 5.42,-2.69 7.64,-9.26 4.96,-14.69 -2.69,-5.43 -9.27,-7.65 -14.69,-4.96 -5.43,2.68 -7.65,9.26 -4.96,14.69 2.69,5.42 9.26,7.65 14.69,4.96 z m -0.15,24.39 c 2.68,5.43 9.26,7.65 14.68,4.96 5.43,-2.68 7.65,-9.26 4.97,-14.69 -2.69,-5.43 -9.27,-7.64 -14.7,-4.96 -5.42,2.69 -7.64,9.27 -4.95,14.69 z m 28.9,-40.14 c 4.76,-2.36 6.7,-8.12 4.35,-12.88 -2.36,-4.75 -8.12,-6.7 -12.88,-4.34 -4.75,2.35 -6.7,8.11 -4.34,12.87 2.35,4.75 8.11,6.71 12.87,4.35 z m 1.66,25 c 2.36,4.76 8.12,6.71 12.88,4.35 4.76,-2.35 6.7,-8.12 4.35,-12.87 -2.36,-4.76 -8.12,-6.7 -12.88,-4.35 -4.76,2.36 -6.7,8.12 -4.35,12.87 z m 14.54,29.36 c 0.08,0.16 0.22,0.25 0.31,0.4 5.35,0.38 10.71,0.65 16.07,0.76 1.93,-2.78 2.45,-6.43 0.84,-9.69 -2.35,-4.75 -8.12,-6.7 -12.87,-4.34 -4.76,2.35 -6.7,8.11 -4.35,12.87 z m 27.09,-40.75 c 4.09,-2.03 5.76,-6.99 3.73,-11.07 -2.02,-4.08 -6.97,-5.76 -11.05,-3.73 -4.09,2.02 -5.76,6.97 -3.74,11.06 2.02,4.09 6.98,5.76 11.06,3.74 z m 3.48,25.61 c 2.02,4.08 6.97,5.76 11.06,3.73 4.08,-2.02 5.76,-6.97 3.73,-11.05 -2.02,-4.09 -6.97,-5.76 -11.06,-3.74 -4.09,2.03 -5.76,6.98 -3.73,11.06 z m 25.27,-41.36 c 3.42,-1.7 4.82,-5.83 3.13,-9.25 -1.7,-3.42 -5.84,-4.82 -9.25,-3.13 -3.42,1.69 -4.81,5.83 -3.12,9.25 1.69,3.42 5.83,4.81 9.24,3.13 z m 5.3,26.23 c 1.69,3.41 5.83,4.81 9.25,3.12 3.4,-1.7 4.8,-5.84 3.11,-9.25 -1.69,-3.42 -5.83,-4.81 -9.24,-3.12 -3.42,1.69 -4.81,5.83 -3.12,9.25 z m 27.34,24.87 c -0.12,-0.55 -0.17,-1.11 -0.44,-1.64 -1.69,-3.42 -5.83,-4.82 -9.25,-3.13 -2.73,1.35 -4.08,4.27 -3.68,7.13 4.46,-0.73 8.93,-1.43 13.37,-2.36 z m 3.22,-40.01 c 1.36,2.74 4.69,3.87 7.44,2.51 2.74,-1.37 3.86,-4.69 2.51,-7.43 -1.36,-2.75 -4.69,-3.87 -7.44,-2.51 -2.74,1.35 -3.86,4.68 -2.51,7.43 z m 14.54,29.35 c 1.36,2.75 4.69,3.87 7.44,2.51 2.74,-1.36 3.86,-4.68 2.5,-7.43 -1.36,-2.75 -4.68,-3.87 -7.43,-2.51 -2.75,1.36 -3.87,4.69 -2.51,7.43 z m 16.03,-44.49 c 1.03,2.07 3.55,2.92 5.62,1.9 2.08,-1.03 2.93,-3.55 1.9,-5.62 -1.04,-2.08 -3.55,-2.93 -5.63,-1.9 -2.07,1.03 -2.92,3.54 -1.89,5.62 z m 14.54,29.35 c 1.03,2.08 3.54,2.93 5.62,1.9 2.07,-1.03 2.92,-3.54 1.89,-5.62 -1.02,-2.07 -3.54,-2.92 -5.61,-1.9 -2.07,1.04 -2.92,3.55 -1.9,5.62 z m 16.03,-44.49 c 0.7,1.4 2.4,1.98 3.81,1.28 1.4,-0.69 1.97,-2.4 1.27,-3.79 -0.69,-1.41 -2.39,-1.99 -3.79,-1.29 -1.41,0.69 -1.99,2.4 -1.29,3.8 z m 14.54,29.35 c 0.69,1.41 2.4,1.98 3.8,1.29 1.4,-0.69 1.98,-2.4 1.29,-3.81 -0.71,-1.39 -2.41,-1.97 -3.81,-1.28 -1.4,0.7 -1.98,2.39 -1.28,3.8 z m 16.03,-44.49 c 0.36,0.73 1.25,1.03 1.99,0.67 0.73,-0.36 1.03,-1.25 0.67,-1.99 -0.37,-0.73 -1.26,-1.02 -1.99,-0.66 -0.74,0.36 -1.04,1.25 -0.67,1.98 z m 14.53,29.35 c 0.37,0.74 1.25,1.04 2,0.68 0.73,-0.36 1.02,-1.26 0.66,-1.99 -0.36,-0.74 -1.25,-1.04 -1.98,-0.67 -0.73,0.36 -1.04,1.25 -0.68,1.98 z m 16.26,-44.31 c 0.13,-0.07 0.19,-0.22 0.12,-0.35 -0.06,-0.13 -0.21,-0.18 -0.34,-0.11 -0.13,0.06 -0.19,0.21 -0.12,0.34 0.06,0.13 0.22,0.18 0.34,0.12 z m 14.54,29.35 c 0.13,-0.06 0.18,-0.22 0.12,-0.35 -0.07,-0.13 -0.21,-0.17 -0.35,-0.12 -0.13,0.07 -0.18,0.23 -0.12,0.36 0.07,0.12 0.23,0.17 0.35,0.11 z m -29.3,-59.17 c -0.13,0.06 -0.18,0.22 -0.12,0.35 0.07,0.12 0.23,0.17 0.35,0.11 0.13,-0.06 0.18,-0.21 0.12,-0.34 -0.07,-0.13 -0.22,-0.18 -0.35,-0.12 z m -14.54,-29.35 c -0.13,0.06 -0.18,0.21 -0.11,0.34 0.06,0.13 0.21,0.19 0.34,0.12 0.13,-0.06 0.18,-0.22 0.12,-0.34 -0.07,-0.13 -0.22,-0.19 -0.35,-0.12 z m -13.37,43.46 c -0.36,-0.74 -1.25,-1.03 -1.98,-0.67 -0.74,0.36 -1.04,1.25 -0.68,1.98 0.36,0.75 1.25,1.04 1.98,0.68 0.75,-0.36 1.04,-1.25 0.68,-1.99 z m -1.16,-72.82 c -0.13,0.06 -0.18,0.22 -0.12,0.34 0.06,0.13 0.21,0.19 0.34,0.12 0.13,-0.06 0.19,-0.21 0.12,-0.34 -0.06,-0.13 -0.22,-0.19 -0.34,-0.12 z m -13.37,43.47 c -0.37,-0.74 -1.26,-1.04 -2,-0.67 -0.73,0.36 -1.03,1.25 -0.67,1.98 0.37,0.74 1.26,1.03 1.99,0.67 0.74,-0.36 1.04,-1.25 0.68,-1.98 z m -1.15,-72.76 c -0.09,0.04 -0.13,0.16 -0.08,0.25 0.05,0.1 0.16,0.14 0.26,0.09 0.1,-0.04 0.14,-0.16 0.09,-0.26 -0.05,-0.09 -0.17,-0.13 -0.27,-0.08 z m -12.46,116.05 c -0.7,-1.41 -2.4,-1.98 -3.81,-1.29 -1.4,0.69 -1.97,2.4 -1.27,3.81 0.69,1.4 2.39,1.97 3.79,1.28 1.41,-0.69 1.99,-2.4 1.29,-3.8 z m -0.93,-72.65 c -0.37,-0.73 -1.25,-1.03 -2,-0.67 -0.73,0.36 -1.02,1.25 -0.66,1.99 0.36,0.73 1.25,1.04 1.98,0.67 0.73,-0.36 1.04,-1.25 0.68,-1.99 z m -13.61,43.29 c -0.69,-1.4 -2.4,-1.98 -3.8,-1.28 -1.4,0.7 -1.98,2.4 -1.29,3.8 0.7,1.4 2.41,1.98 3.8,1.28 1.41,-0.69 1.99,-2.39 1.29,-3.8 z m -1.05,-72.58 c -0.33,-0.68 -1.15,-0.95 -1.81,-0.62 -0.67,0.33 -0.95,1.14 -0.61,1.82 0.33,0.67 1.14,0.95 1.81,0.61 0.67,-0.33 0.94,-1.15 0.61,-1.81 z m -12.55,115.88 c -1.03,-2.08 -3.55,-2.93 -5.62,-1.91 -2.08,1.04 -2.93,3.55 -1.89,5.63 1.02,2.07 3.53,2.92 5.61,1.89 2.07,-1.02 2.92,-3.54 1.9,-5.61 z m -0.94,-72.65 c -0.69,-1.41 -2.39,-1.98 -3.8,-1.29 -1.4,0.7 -1.98,2.4 -1.29,3.81 0.71,1.41 2.41,1.97 3.81,1.28 1.41,-0.7 1.97,-2.39 1.28,-3.8 z m -13.6,43.29 c -1.03,-2.08 -3.54,-2.93 -5.62,-1.89 -2.07,1.02 -2.92,3.53 -1.89,5.61 1.02,2.07 3.54,2.92 5.61,1.9 2.08,-1.03 2.93,-3.55 1.9,-5.62 z m -1.16,-72.53 c -0.64,-1.28 -2.18,-1.81 -3.46,-1.17 -1.28,0.63 -1.8,2.18 -1.16,3.46 0.62,1.28 2.17,1.79 3.44,1.17 1.28,-0.64 1.81,-2.19 1.18,-3.46 z m -12.45,115.82 c -1.35,-2.74 -4.68,-3.87 -7.43,-2.51 -2.74,1.36 -3.86,4.69 -2.51,7.43 1.37,2.75 4.69,3.87 7.43,2.51 2.75,-1.35 3.87,-4.68 2.51,-7.43 z m -0.92,-72.64 c -1.04,-2.09 -3.55,-2.92 -5.62,-1.9 -2.08,1.03 -2.93,3.54 -1.9,5.62 1.02,2.07 3.54,2.92 5.62,1.89 2.07,-1.03 2.92,-3.54 1.9,-5.61 z m -13.61,43.29 c -1.36,-2.75 -4.68,-3.87 -7.43,-2.51 -2.74,1.35 -3.87,4.68 -2.51,7.43 1.36,2.74 4.69,3.87 7.43,2.51 2.75,-1.36 3.87,-4.69 2.51,-7.43 z m -1.34,-72.45 c -0.91,-1.85 -3.16,-2.61 -5.01,-1.69 -1.85,0.91 -2.61,3.16 -1.69,5.01 0.91,1.85 3.16,2.61 5.01,1.69 1.85,-0.91 2.6,-3.16 1.69,-5.01 z m -13.2,43.09 c -1.36,-2.74 -4.69,-3.87 -7.43,-2.51 -2.74,1.36 -3.87,4.69 -2.51,7.43 1.36,2.75 4.69,3.87 7.43,2.51 2.75,-1.36 3.87,-4.69 2.51,-7.43 z m -13.6,43.29 c -1.69,-3.42 -5.83,-4.81 -9.24,-3.12 -3.42,1.7 -4.82,5.83 -3.13,9.24 1.69,3.42 5.83,4.82 9.25,3.13 3.41,-1.69 4.81,-5.83 3.12,-9.25 z m -1.4,-72.41 c -1.23,-2.49 -4.25,-3.52 -6.74,-2.28 -2.49,1.23 -3.51,4.25 -2.27,6.74 1.23,2.49 4.25,3.51 6.74,2.28 2.49,-1.23 3.51,-4.26 2.27,-6.74 z m -13.14,43.06 c -1.69,-3.42 -5.83,-4.82 -9.25,-3.13 -3.41,1.7 -4.81,5.84 -3.12,9.25 1.69,3.42 5.83,4.81 9.25,3.12 3.42,-1.69 4.82,-5.83 3.12,-9.24 z m -24.67,39.56 c -4.08,2.02 -5.75,6.97 -3.73,11.05 2.03,4.09 6.98,5.76 11.06,3.74 4.09,-2.03 5.76,-6.98 3.74,-11.06 -2.02,-4.08 -6.98,-5.76 -11.07,-3.73 z m 9.5,-68.61 c -1.52,-3.05 -5.23,-4.31 -8.3,-2.79 -3.06,1.51 -4.32,5.22 -2.8,8.29 1.52,3.07 5.24,4.32 8.3,2.8 3.06,-1.52 4.31,-5.23 2.8,-8.3 z m -12.97,42.98 c -2.02,-4.08 -6.98,-5.75 -11.06,-3.73 -4.08,2.02 -5.76,6.97 -3.73,11.06 2.02,4.09 6.97,5.76 11.06,3.74 4.08,-2.03 5.75,-6.98 3.73,-11.07 z m -15.29,-28.98 c -1.81,-3.67 -6.27,-5.17 -9.94,-3.35 -3.66,1.81 -5.17,6.27 -3.35,9.93 1.82,3.67 6.27,5.18 9.94,3.36 3.67,-1.82 5.17,-6.27 3.35,-9.94 z m -25.72,38.57 c -4.76,2.36 -6.71,8.13 -4.35,12.88 2.35,4.76 8.12,6.7 12.87,4.35 4.76,-2.37 6.71,-8.13 4.35,-12.88 -2.36,-4.76 -8.12,-6.7 -12.87,-4.35 z m -2.47,-24.61 c -2.14,-4.3 -7.36,-6.06 -11.67,-3.93 -4.31,2.14 -6.07,7.35 -3.94,11.67 2.13,4.3 7.36,6.06 11.67,3.93 4.31,-2.14 6.07,-7.35 3.94,-11.67 z m -27.49,37.93 c -5.42,2.7 -7.65,9.27 -4.96,14.7 2.69,5.42 9.26,7.65 14.69,4.96 5.43,-2.7 7.65,-9.27 4.96,-14.7 -2.69,-5.42 -9.26,-7.64 -14.69,-4.96 z m -0.83,-23.9 c -2.42,-4.89 -8.34,-6.89 -13.22,-4.47 -4.88,2.42 -6.88,8.34 -4.46,13.23 2.41,4.88 8.34,6.88 13.22,4.46 4.88,-2.42 6.88,-8.34 4.46,-13.22 z m -28.26,13.99 c -2.72,-5.49 -9.37,-7.73 -14.86,-5.02 -5.49,2.72 -7.73,9.38 -5.02,14.86 2.72,5.5 9.38,7.75 14.86,5.02 5.5,-2.71 7.74,-9.37 5.02,-14.86 z m -564.4,-200.45 464.23,222.17 679.21,-329.21 -29.21,192.76 c -4.45,29.37 -23.15,54.61 -49.92,67.43 L 1788.4,2468.3 1560,2577.61 968.148,2294.36 c -32.207,-15.41 -54.664,-45.81 -59.941,-81.12 l -42.23,-282.51 707.913,-445.68 192.25,125.53 -687.68,407.42 17.78,119.05" /></g></g></g></g></svg>