<svg version="1.2" xmlns="http://www.w3.org/2000/svg" viewBox="0 0 304 465" width="304" height="465">
	<title>Arkema-Premiere-Ligue</title>
	<style>
		.s0 { fill: #231c3e } 
		.s1 { fill: #57d1e6 } 
		.s2 { fill: #ffffff } 
	</style>
	<g id="Dossier 1">
		<path id="Forme 1" class="s0" d="m303.6 0v465h-303.6v-465z"/>
		<path id="Path 242" fill-rule="evenodd" class="s1" d="m110.2 159.8l-0.1 0.3c-14.5 49 27 105.6 78.6 115.2-10.4 4.7-22 7.3-34.3 7.3-27.4 0-51.8-13.2-67-33.7-6.8-26.6-6.2-55.2 2.4-82.3 0 0-9.8 6.7-18.4 23.4 4.5-41.9 39.9-74.5 83-74.5 31.1 0 58.3 17 72.7 42.2 4.4 9.2 6.5 19.2 5.6 29.1-1.6 18.9-10.8 40.2-38.6 47.7-34.3 9.1-70.4-10.6-76.6-47.5-1.5-9-1.7-18.8-1.7-18.8 10.7 25.6 39.6 30.3 55.2 22.9 28.8-13.6-1.3-64.4-60.8-31.3zm-10.2-46.4c-9.7-21.7-18.2-34.8-18.2-34.8 0 0 36.8-3.7 72.6-27.9 35.9 24.2 72.7 27.9 72.7 27.9 0 0-8.5 13.1-18.2 34.8-16.1-10.3-34.9-15.8-54.5-15.8-19.5 0-38.3 5.5-54.4 15.8zm-38.5 266.6h-6.2v-26.6c3.1-0.3 6.2-0.5 8.4-0.5 9.1 0 12.7 2.9 12.7 9.2 0 7.8-5.1 9.9-12 9.9q-1.4 0-2.9-0.1zm0-13.2c1.2 0.1 2.2 0.2 3.3 0.2 3.6 0 5.3-1 5.3-4.6 0-3.6-1.7-4.3-5.5-4.3-0.8 0-1.9 0-3.1 0.1z"/>
		<path id="Path 243" fill-rule="evenodd" class="s1" d="m103.9 380h-7l-4.8-9.2c-1.4 0-3.1 0-4.4-0.1v9.3h-6.1v-26.6c3-0.3 5.8-0.5 8.2-0.5 7.9 0 12.6 1.9 12.6 8.8 0 3.9-1.6 6.5-4.9 7.6zm-16.2-14.2q1.7 0.2 3 0.2c3.7 0 5.4-0.8 5.4-4.1 0-2.9-1.8-3.7-5.1-3.7q-1.5 0-3.3 0.1zm39.9 14.2h-19.1v-26.8h18.6v5.1h-12.5v5.7h11v4.9h-11v6h13zm20.3-9.1l7.2-17.7h7.5v26.8h-5.5v-18.2l-7 16.9h-4.5l-7-16.9v18.2h-5.4v-26.8h7.6zm27.8 9h-6.2v-26.8h6.2zm15.2-35.2l3 6.1h-4.3l-5-6.1zm10.8 35.2h-19.1v-26.9h18.7v5.1h-12.5v5.7h10.9v4.9h-10.9v6.1h12.9zm28 0h-7l-4.9-9.2c-1.3 0-3 0-4.3-0.1v9.3h-6.1v-26.6c3-0.3 5.7-0.5 8.2-0.5 7.8 0 12.6 1.9 12.6 8.8 0 3.8-1.7 6.5-4.9 7.6zm-16.2-14.2q1.6 0.1 2.9 0.1c3.7 0 5.5-0.7 5.5-4 0-2.9-1.8-3.7-5.1-3.7q-1.5 0-3.3 0.1zm39.9 14.2h-19.2v-26.8h18.7v5.1h-12.5v5.6h10.9v5h-10.9v6h13z"/>
		<path id="Path 244" fill-rule="evenodd" class="s2" d="m116.7 418.2h-17.4v-26.9h6.1v21.7h11.3zm10.9 0h-6.1v-26.8h6.1zm19 0.4c-9.2 0-13.2-4.5-13.2-13.8 0-9.3 4.2-13.9 13.6-13.9 2.5 0 5.3 0.4 7.4 1v5.2c-2.7-0.6-5.1-1-7-1-5.8 0-7.6 2.1-7.6 8.7 0 6.6 1.6 8.6 6.8 8.6 0.9 0 1.9-0.1 2.8-0.3v-8.9h5.5v13c-2.5 0.9-5.7 1.4-8.3 1.4zm25.7 0c-8 0-11.5-3.5-11.5-10.8v-16.5h6.2v16.5c0 3.6 1.6 5.5 5.4 5.5 3.6 0 5.3-1.7 5.3-5.5v-16.5h6.1v16.5c0 7.3-3.5 10.8-11.5 10.8zm37.2-0.4h-19.1v-26.9h18.6v5.1h-12.5v5.7h11v4.9h-11v6.1h13zm-56.7-92.9h20.9v5.4h-20.9c0.2 3.7 2.5 5.7 8.2 5.7h12.7v5.4h-13.5c-9 0-13.9-4.2-13.9-13.8 0-9.5 4.9-13.7 13.9-13.7h13.5v5.4h-12.7c-5.6 0-8 2-8.2 5.6zm-70.4 16.5h-6.4l-3.3-7.9h-14l-3.4 7.9h-6.3l9.7-22.4c1.3-3 3.2-5.4 7-5.4q1 0 1.9 0.2c2.6 0.7 4 2.7 5.1 5.2zm-12-13.2l-3.1-7.4c-0.4-0.9-0.8-1.2-1.2-1.3q-0.2-0.1-0.4-0.1c-0.7 0-1.1 0.3-1.6 1.4l-3.1 7.4z"/>
		<path id="Path 245" fill-rule="evenodd" class="s2" d="m250.1 333.9h-14l-0.8 2c-1.9 4.3-4 6.3-7.2 6.3-1.9 0-3.4-0.5-4.5-1.4q-0.1-0.1-0.1-0.1c-1.2-1.1-2.1-2.6-2.7-4.9l-4.1-14.7c-0.1-0.4-0.4-0.7-0.7-0.9q-0.2-0.1-0.5-0.1c-0.5 0-1.1 0.3-1.2 1l-4.7 15.3c-1.2 3.9-3.7 5.8-6.6 5.8-3 0-5.5-1.9-6.7-5.8l-4.6-15.3c-0.2-0.4-0.4-0.7-0.7-0.9q-0.3-0.1-0.5-0.1c-0.5 0-1.1 0.3-1.2 1l-5.9 20.7h-6.5l6.6-22.1c1.2-3.8 3.8-5.7 7-5.7q2.2 0 3.8 1.2 0.3 0.3 0.6 0.5 0 0 0 0.1 1.4 1.4 2.2 3.9l4.7 15.1c0.1 0.5 0.3 0.7 0.6 0.9q0.3 0.1 0.6 0.1c0.5 0 1-0.3 1.2-1l4.6-15.1c1.2-3.8 3.6-5.7 6.7-5.7q1.7 0 3.2 0.8 0.1 0 0.1 0 0.7 0.4 1.3 1c1 0.9 1.8 2.3 2.3 3.9l4.5 15.6q0.3 1.1 1.1 1c0.6 0 0.9-0.3 1.2-1l6.9-15.9c1.3-3 3.2-5.4 7-5.4 2.3 0 3.9 0.9 5.1 2.3q0.1 0.1 0.1 0.1 0.5 0.6 0.8 1.2 0.1 0.2 0.3 0.4 0.3 0.7 0.7 1.4l9.7 22.4h-6.4zm-2.2-5.3l-3.2-7.4q0-0.1-0.1-0.3-0.1-0.1-0.1-0.1-0.1-0.2-0.2-0.4-0.1-0.1-0.1-0.1c-0.3-0.4-0.7-0.5-1.1-0.5-0.6 0-1 0.3-1.5 1.4l-3.2 7.4zm-141.1 2.5l7.3 10.7h-7.1l-5.3-8c-1.1-1.7-2.3-1.9-4.7-1.9h-4.8v9.9h-6v-27.4h17.5c6.5 0 9.9 3.1 9.9 8.4 0 4.7-2.5 7.4-6.8 8.3zm0.8-8c0-2.3-1.7-3.5-4.3-3.5h-11.1v7h11.1c2.6 0 4.3-1.2 4.3-3.5zm20.1 7.7h-3.2v11h-5.9v-27.4h5.9v11h3.2c2.3 0 3.2-0.4 4.5-2l7-9h7l-10.5 13.7 10.5 13.7h-7l-7-9c-1.3-1.6-2.2-2-4.5-2z"/>
	</g>
</svg>