<svg id="Capa_1" data-name="Capa 1" xmlns="http://www.w3.org/2000/svg" viewBox="0 0 600 500">
  <defs>
    <style>
      .cls-1 {
        fill: #23305f;
      }
    </style>
  </defs>
  <g>
    <path class="cls-1" d="M341.45,36.89c-6.53-.11-13,0-19.47.25-61.46,2.92-120.5,20.94-167.9,49.56,10.47,25.63,15.58,56.55,14.33,86.05q7.82-1.68,15.91-2.74c.08-.2.15-.39.22-.59C209.92,103.4,266.46,56,341.45,36.89"/>
    <path class="cls-1" d="M244.08,169.34c40.58,4,80,16.09,107.46,31.79,5.44,3.1,11.49,2.25,17.57-1l42.77-24.24a8.08,8.08,0,0,0,.06-14c-19.18-10.86-45.51-21.7-73.31-30.13a67.68,67.68,0,0,0-28-2.46,138.22,138.22,0,0,0-20.82,4.24c-16.82,5.29-33.35,18.28-45.73,35.87"/>
    <path class="cls-1" d="M94.9,162.59c6.46-14.43,8.35-25.14,8.33-36.62-27.15,27.08-45.75,59.05-52,94.09C70.66,203.56,85,184.68,94.9,162.59"/>
    <path class="cls-1" d="M143.77,93.16q-7,4.65-13.67,9.63a37.18,37.18,0,0,0-15,28.16c0,.47,0,.91-.07,1.34-.64,10.72-3.12,21.62-9.19,35.19-10.76,24-26.38,44.5-47.6,62.3l-.07.07a25.63,25.63,0,0,0-9.28,20.2c.6,25.51,7.7,52.27,22.64,79.65,1.62,3,5.19,4.85,9.06,4.85H96.71c2.54,0,4.25-2.19,3.24-4.16-8.19-16-34.73-74.71-6.63-114a104.13,104.13,0,0,1,8.74-10c1.62-1.5,3.1-2.91,4.47-4.22,13.79-12.3,30.87-20.84,49.73-26.33,1.73-28.16-2.76-57.93-12.49-82.68"/>
    <path class="cls-1" d="M544.82,95.33C507.74,74,460.52,55.24,411.38,45a127.27,127.27,0,0,0-44.59-1.25l-1.25.19c-79.62,13.79-140.44,59.1-167.77,124.67a264.73,264.73,0,0,1,32.63-.32c.44-.71.88-1.39,1.3-2,14.09-21.63,34-37.76,54.66-44.26,2.1-.6,4.16-1.12,6.19-1.61a266.28,266.28,0,0,0-40-4.53,1.92,1.92,0,0,1-.25-3.81c68.94-10.23,146.31,9.37,202.06,39.19,5.44,2.91,10.09,3.11,15.35.17l75-42a8.09,8.09,0,0,0,.12-14.09"/>
    <polygon class="cls-1" points="155.9 315.93 199.1 315.93 199.1 334.58 136.06 334.58 136.06 235.5 155.9 235.5 155.9 315.93"/>
    <path class="cls-1" d="M231.3,247.21a12.13,12.13,0,0,1-16.76,0,11.77,11.77,0,0,1,0-16.55,12.1,12.1,0,0,1,16.76,0,11.77,11.77,0,0,1,0,16.55m-17.71,14.16h18.66v73.21H213.59Z"/>
    <path class="cls-1" d="M295.9,334.58q10.94,0,18.2,5.71t9.08,15.82l-19.29,5.18a8.84,8.84,0,0,0-3.57-6.38,13,13,0,0,0-8.07-2.38h-24q-10.25,0-16.44-5.4A17.87,17.87,0,0,1,245.62,333a21.85,21.85,0,0,1,2.7-10.58,20.5,20.5,0,0,1,7.19-7.79,29.89,29.89,0,0,1-9.75-22.79,30.25,30.25,0,0,1,9.78-23q9.79-9.18,24.51-9.18a37.94,37.94,0,0,1,16,3.43,16,16,0,0,1,6.63-9.36,21.18,21.18,0,0,1,12.16-3.4h6v17.25h-5.19a8.5,8.5,0,0,0-4.87,1.4,5.9,5.9,0,0,0-2.56,3.86,30.27,30.27,0,0,1,6.31,19,30,30,0,0,1-9.89,22.93q-9.89,9.19-24.61,9.19A41.66,41.66,0,0,1,268,322.1a7,7,0,0,0-3.72,6.31,5.43,5.43,0,0,0,2.18,4.41,8.65,8.65,0,0,0,5.61,1.76Zm-15.85-57.29a15.13,15.13,0,0,0-10.9,4.13,14.63,14.63,0,0,0,0,20.76,16.38,16.38,0,0,0,21.77,0,14.56,14.56,0,0,0,0-20.76,15.18,15.18,0,0,0-10.87-4.13"/>
    <path class="cls-1" d="M385.08,261.37h18.65v73.21H385.08v-8.77a31,31,0,0,1-23.84,10.52,33.42,33.42,0,0,1-25.53-11q-10.23-11-10.24-27.35t10.24-27.34a33.42,33.42,0,0,1,25.53-11,30.93,30.93,0,0,1,23.84,10.45Zm-20.27,56.87a20.27,20.27,0,1,0,0-40.53,19.37,19.37,0,0,0-14.37,5.82,21,21,0,0,0,0,28.89,19.37,19.37,0,0,0,14.37,5.82"/>
    <polygon class="cls-1" points="513.32 254.15 468.65 254.15 468.65 276.45 507.57 276.45 507.57 295.1 468.65 295.1 468.65 334.58 448.81 334.58 448.81 235.5 513.32 235.5 513.32 254.15"/>
  </g>
  <g>
    <path class="cls-1" d="M48.88,425.86h7.83L66.9,455.93l10.18-30.07h7.73L71.17,464.2H62.63Z"/>
    <path class="cls-1" d="M98.59,425.86h8.54l14.24,38.34h-7.78l-3.34-9.42H95.41l-3.34,9.42H84.35Zm9.25,22.24-5-14.24-5,14.24Z"/>
    <path class="cls-1" d="M127.09,425.86h10.35l10.85,28.37,10.84-28.37h10.36V464.2H162.2V436.27L151.3,464.2h-6l-10.9-27.93V464.2h-7.29Z"/>
    <path class="cls-1" d="M176.19,445c0-11.39,8.49-19.82,19.88-19.82s19.82,8.48,19.82,19.82-8.43,19.83-19.82,19.83S176.19,456.42,176.19,445Zm19.88,12.71c7.23,0,12.33-5.26,12.33-12.71s-5.1-12.71-12.33-12.71-12.38,5.26-12.38,12.71S188.84,457.74,196.07,457.74Z"/>
    <path class="cls-1" d="M220.09,452.7l6.95-1.37c.38,4.38,3.67,7.06,8.66,7.06,4.05,0,6.4-1.86,6.4-4.93,0-2.29-1.58-3.78-4.76-4.49l-5.48-1.15c-6.74-1.31-10.18-5.09-10.18-11.12,0-6.68,5.58-11.49,13.47-11.49,7.61,0,12.38,3.39,14,9.85l-6.85,2.19c-.65-3.45-3.45-5.59-7.17-5.59-4,0-6.08,1.7-6.08,4.83,0,2.29,1.37,3.78,4.21,4.38l5.48,1.09c7.18,1.48,10.74,5.21,10.74,11.23,0,7-5.59,11.67-13.8,11.67C226.82,464.86,221,460.36,220.09,452.7Z"/>
    <path class="cls-1" d="M267.1,445c0-11.39,8.49-19.82,19.93-19.82,8.33,0,15.23,4.27,17.48,10.89l-6.8,3.34c-1.53-4.38-5.64-7.12-10.68-7.12-7.28,0-12.43,5.26-12.43,12.71,0,7.83,5,12.93,12.77,12.93,4,0,7.06-.77,9.14-2.25v-6.46H287v-6.47h16.43v16.76c-4,3.46-9.59,5.32-16,5.32C275.53,464.86,267.1,456.58,267.1,445Z"/>
    <path class="cls-1" d="M322.5,425.86H331l14.24,38.34h-7.77l-3.35-9.42H319.32L316,464.2h-7.72Zm9.26,22.24-5-14.24-5,14.24Z"/>
    <path class="cls-1" d="M351,425.86h7.83l16.54,26.45V425.86h7.28V464.2h-7.83L358.3,437.74V464.2H351Z"/>
    <path class="cls-1" d="M402.63,425.86h8.54l14.24,38.34h-7.77l-3.35-9.42H399.45l-3.34,9.42h-7.72Zm9.26,22.24-5-14.24-5,14.24Z"/>
    <path class="cls-1" d="M431.14,425.86H439l16.54,26.45V425.86h7.29V464.2H455l-16.54-26.46V464.2h-7.29Z"/>
    <path class="cls-1" d="M472,425.86h13.36c11.83,0,19.5,7.5,19.5,19,0,11.77-7.67,19.33-19.5,19.33H472Zm13.36,31.44c7.39,0,12-4.77,12-12.43,0-7.45-4.61-12.11-12-12.11h-6.08V457.3Z"/>
    <path class="cls-1" d="M509.07,445c0-11.39,8.5-19.82,19.89-19.82s19.82,8.48,19.82,19.82-8.43,19.83-19.82,19.83S509.07,456.42,509.07,445ZM529,457.74c7.22,0,12.32-5.26,12.32-12.71s-5.1-12.71-12.32-12.71-12.38,5.26-12.38,12.71S521.73,457.74,529,457.74Z"/>
  </g>
</svg>
