<?xml version="1.0" encoding="utf-8"?>
<!-- Generator: Adobe Illustrator 23.0.1, SVG Export Plug-In . SVG Version: 6.00 Build 0)  -->
<svg version="1.1" id="Livello_1" xmlns="http://www.w3.org/2000/svg" xmlns:xlink="http://www.w3.org/1999/xlink" x="0px" y="0px"
	 viewBox="0 0 397.313 500" enable-background="new 0 0 397.313 500" xml:space="preserve">
<g>
	<path fill="#159FDB" d="M197.102,246.911c6.368,0,11.55,5.182,11.55,11.587c0,6.404-5.181,11.585-11.55,11.585
		c-6.405,0-11.622-5.182-11.622-11.585C185.48,252.093,190.698,246.911,197.102,246.911 M197.102,225.502
		c-18.206,0-33.03,14.752-33.03,32.995c0,18.242,14.824,32.958,33.03,32.958c18.206,0,32.994-14.716,32.994-32.958
		C230.096,240.255,215.308,225.502,197.102,225.502"/>
	<path fill="#159FDB" d="M288.734,327.793l-88.081-194.547c-1.367-3.058-5.721-3.058-7.16,0l-88.153,194.547
		c-2.483,5.469-7.88,8.96-13.889,8.96H58.314c-11.046,0-18.422-11.442-13.853-21.517L183.239,8.932
		c5.361-11.909,22.344-11.909,27.741,0l138.633,306.304c4.57,10.076-2.806,21.517-13.925,21.517h-33.066
		C296.614,336.753,291.217,333.262,288.734,327.793"/>
	<path fill="#159FDB" d="M55.637,422.983c-1.187-0.863-2.051-2.446-2.051-4.137c0-2.842,2.267-5.073,5.109-5.073
		c1.439,0,2.447,0.504,3.13,1.007c3.814,2.807,7.952,4.498,12.809,4.498c4.498,0,7.196-1.799,7.196-4.749v-0.108
		c0-2.807-1.691-4.174-10.039-6.332c-10.111-2.591-16.551-5.398-16.551-15.292v-0.18c0-9.03,7.232-15.04,17.451-15.04
		c6.081,0,11.37,1.547,15.867,4.39c1.187,0.755,2.447,2.266,2.447,4.425c0,2.843-2.303,5.038-5.181,5.038
		c-1.043,0-1.943-0.288-2.771-0.792c-3.598-2.086-7.052-3.346-10.506-3.346c-4.21,0-6.404,1.942-6.404,4.354v0.144
		c0,3.31,2.123,4.354,10.794,6.548c10.111,2.663,15.867,6.297,15.867,15.005v0.144c0,9.894-7.592,15.508-18.422,15.508
		C67.834,428.993,61.25,426.978,55.637,422.983"/>
	<path fill="#159FDB" d="M102.315,422.778v-39.003c0-3.058,2.447-5.506,5.505-5.506h27.705c2.699,0,4.893,2.267,4.893,4.965
		c0,2.699-2.195,4.822-4.893,4.822h-22.308v10.147h19.106c2.698,0,4.893,2.231,4.893,4.929c0,2.735-2.195,4.894-4.893,4.894h-19.106
		v10.434h22.632c2.735,0,4.965,2.267,4.965,4.965c0,2.699-2.231,4.858-4.965,4.858H107.82
		C104.761,428.284,102.315,425.837,102.315,422.778"/>
	<path fill="#159FDB" d="M150.147,383.811c0-3.094,2.375-5.504,5.433-5.504h17.379c6.333,0,11.262,1.762,14.572,5.073
		c2.771,2.77,4.246,6.693,4.246,11.442v0.072c0,7.88-3.886,12.737-10.003,15.22l7.664,9.319c1.044,1.331,1.799,2.483,1.799,4.174
		c0,3.094-2.591,5.109-5.253,5.109c-2.447,0-4.102-1.259-5.397-2.843l-10.686-13.6h-8.815v10.938c0,3.059-2.411,5.506-5.505,5.506
		c-3.058,0-5.433-2.446-5.433-5.506V383.811z M172.24,402.556c5.361,0,8.455-2.842,8.455-7.052v-0.144
		c0-4.714-3.31-7.124-8.671-7.124h-10.938v14.32H172.24z"/>
	<path fill="#159FDB" d="M202.183,383.36c0-3.058,2.447-5.504,5.505-5.504c3.058,0,5.505,2.446,5.505,5.504v39.867
		c0,3.059-2.447,5.469-5.505,5.469c-3.058,0-5.505-2.41-5.505-5.469V383.36z"/>
	<path fill="#159FDB" d="M225.66,422.778v-39.003c0-3.058,2.446-5.506,5.505-5.506h27.705c2.698,0,4.893,2.267,4.893,4.965
		c0,2.699-2.195,4.822-4.893,4.822h-22.308v10.147h19.034c2.771,0,4.965,2.231,4.965,4.929c0,2.735-2.195,4.894-4.965,4.894h-19.034
		v10.434h22.632c2.734,0,4.965,2.267,4.965,4.965c0,2.699-2.231,4.858-4.965,4.858h-28.029
		C228.106,428.284,225.66,425.837,225.66,422.778"/>
	<path fill="#159FDB" d="M292.091,421.202l17.415-39.363c1.187-2.699,3.418-4.318,6.44-4.318h0.576c3.022,0,5.181,1.619,6.368,4.318
		l17.451,39.363c0.36,0.792,0.576,1.476,0.576,2.195c0,2.95-2.267,5.289-5.253,5.289c-2.519,0-4.21-1.476-5.217-3.778l-3.382-7.843
		H305.08l-3.49,8.203c-0.936,2.123-2.771,3.418-5.073,3.418c-2.879,0-5.073-2.266-5.073-5.109
		C291.443,422.749,291.731,421.994,292.091,421.202 M322.999,407.349l-6.944-16.478l-6.908,16.478H322.999z"/>
	<path fill="#159FDB" d="M0,452.501c0-1.547,1.295-2.842,2.806-2.842h30.871c1.475,0,2.591,1.151,2.591,2.554
		c0,1.44-1.115,2.663-2.591,2.663H5.649v17.81h24.863c1.367,0,2.519,1.188,2.519,2.626c0,1.368-1.151,2.555-2.519,2.555H5.649v19.25
		c0,1.583-1.295,2.842-2.842,2.842c-1.511,0-2.806-1.258-2.806-2.842V452.501z"/>
	<path fill="#159FDB" d="M46.811,496.761v-44.256c0-1.583,1.295-2.843,2.806-2.843h31.015c1.439,0,2.555,1.152,2.555,2.555
		c0,1.475-1.115,2.59-2.555,2.59H52.46v17.055h24.935c1.475,0,2.627,1.187,2.627,2.555c0,1.438-1.151,2.59-2.627,2.59H52.46v17.45
		h28.533c1.403,0,2.555,1.188,2.555,2.626c0,1.368-1.151,2.519-2.555,2.519H49.617C48.106,499.604,46.811,498.309,46.811,496.761"/>
	<path fill="#159FDB" d="M94.611,452.232c0-1.511,1.295-2.806,2.806-2.806h0.648c1.187,0,2.051,0.647,2.591,1.511l17.846,26.842
		l17.847-26.842c0.612-0.936,1.511-1.511,2.662-1.511h0.648c1.511,0,2.735,1.295,2.735,2.806v44.904
		c0,1.547-1.223,2.843-2.735,2.843c-1.547,0-2.879-1.332-2.879-2.843V459.86l-15.975,23.532c-0.648,0.863-1.331,1.367-2.339,1.367
		s-1.799-0.504-2.447-1.367l-15.903-23.46v37.24c0,1.618-1.223,2.807-2.807,2.807c-1.511,0-2.698-1.188-2.698-2.807V452.232z"/>
	<path fill="#159FDB" d="M156.541,452.232c0-1.511,1.295-2.806,2.806-2.806h0.648c1.187,0,2.051,0.647,2.591,1.511l17.846,26.842
		l17.846-26.842c0.612-0.936,1.511-1.511,2.662-1.511h0.648c1.511,0,2.735,1.295,2.735,2.806v44.904
		c0,1.547-1.223,2.843-2.735,2.843c-1.547,0-2.879-1.332-2.879-2.843V459.86l-15.975,23.532c-0.648,0.863-1.331,1.367-2.339,1.367
		c-1.007,0-1.835-0.504-2.447-1.367l-15.903-23.46v37.24c0,1.618-1.223,2.807-2.807,2.807c-1.511,0-2.698-1.188-2.698-2.807V452.232
		z"/>
	<path fill="#159FDB" d="M218.964,452.145c0-1.547,1.295-2.842,2.806-2.842c1.547,0,2.843,1.295,2.843,2.842v44.941
		c0,1.619-1.295,2.914-2.843,2.914c-1.511,0-2.806-1.296-2.806-2.914V452.145z"/>
	<path fill="#159FDB" d="M239.236,452.232c0-1.511,1.295-2.806,2.806-2.806h0.756c1.259,0,2.087,0.647,2.842,1.655l30.368,38.68
		v-37.673c0-1.511,1.224-2.806,2.771-2.806c1.511,0,2.698,1.295,2.698,2.806v45.085c0,1.511-1.079,2.663-2.555,2.663h-0.288
		c-1.223,0-2.123-0.72-2.914-1.692l-30.979-39.614v38.643c0,1.511-1.223,2.807-2.807,2.807c-1.511,0-2.698-1.296-2.698-2.807
		V452.232z"/>
	<path fill="#159FDB" d="M296.078,452.145c0-1.547,1.295-2.842,2.806-2.842c1.547,0,2.843,1.295,2.843,2.842v44.941
		c0,1.619-1.295,2.914-2.843,2.914c-1.511,0-2.806-1.296-2.806-2.914V452.145z"/>
	<path fill="#159FDB" d="M316.375,452.145c0-1.547,1.223-2.842,2.806-2.842c1.547,0,2.843,1.295,2.843,2.842v42.278h25.87
		c1.475,0,2.591,1.223,2.591,2.627c0,1.44-1.115,2.554-2.591,2.554h-28.713c-1.583,0-2.806-1.258-2.806-2.842V452.145z"/>
	<path fill="#159FDB" d="M360.541,496.761v-44.256c0-1.583,1.223-2.843,2.806-2.843h31.015c1.439,0,2.591,1.152,2.591,2.555
		c0,1.475-1.151,2.59-2.591,2.59H366.19v17.055h24.935c1.439,0,2.627,1.187,2.627,2.555c0,1.438-1.187,2.59-2.627,2.59H366.19v17.45
		h28.533c1.403,0,2.591,1.188,2.591,2.626c0,1.368-1.187,2.519-2.591,2.519h-31.375
		C361.764,499.604,360.541,498.309,360.541,496.761"/>
</g>
</svg>
